<svg width="242" height="31" viewBox="0 0 242 31" fill="none" xmlns="http://www.w3.org/2000/svg">
<path d="M0.0800018 19.168C0.304002 18.992 0.520002 18.904 0.728002 18.904C0.920002 18.904 1.104 18.96 1.28 19.072C1.472 19.184 1.664 19.328 1.856 19.504C2.048 19.664 2.2 19.784 2.312 19.864C2.68 20.152 3.184 20.376 3.824 20.536C4.464 20.696 5.144 20.776 5.864 20.776C6.68 20.776 7.408 20.624 8.048 20.32C8.704 20 9.032 19.576 9.032 19.048C9.032 18.568 8.856 18.192 8.504 17.92C8.152 17.632 7.728 17.424 7.232 17.296C6.736 17.168 6.08 17.048 5.264 16.936C4.16 16.808 3.28 16.648 2.624 16.456C1.984 16.264 1.472 15.952 1.088 15.52C0.704002 15.072 0.512002 14.448 0.512002 13.648C0.512002 12.784 0.920002 12.144 1.736 11.728C2.552 11.296 3.488 11.08 4.544 11.08C5.504 11.08 6.32 11.288 6.992 11.704C7.68 12.104 8.032 12.68 8.048 13.432C8.08 13.864 8.016 14.208 7.856 14.464C7.696 14.704 7.504 14.824 7.28 14.824C7.152 14.824 7.04 14.776 6.944 14.68C6.864 14.584 6.824 14.456 6.824 14.296C6.824 14.04 6.912 13.76 7.088 13.456C7.008 13.072 6.744 12.784 6.296 12.592C5.864 12.4 5.344 12.304 4.736 12.304C3.84 12.304 3.128 12.472 2.6 12.808C2.072 13.128 1.808 13.512 1.808 13.96C1.808 14.44 2 14.808 2.384 15.064C2.768 15.32 3.232 15.504 3.776 15.616C4.336 15.712 5.128 15.808 6.152 15.904C7 16.016 7.688 16.152 8.216 16.312C8.76 16.472 9.216 16.784 9.584 17.248C9.952 17.696 10.136 18.344 10.136 19.192C10.136 20.072 9.728 20.768 8.912 21.28C8.096 21.776 7.12 22.024 5.984 22.024C4.528 22.024 3.224 21.776 2.072 21.28C0.936002 20.784 0.272002 20.08 0.0800018 19.168Z" fill="black" fill-opacity="0.75"/>
<path d="M21.2909 21.88C21.0029 21.88 20.7709 21.76 20.5949 21.52C20.4349 21.264 20.2909 20.88 20.1629 20.368C20.0349 19.84 19.8349 18.928 19.5629 17.632C19.2909 18.704 18.7789 19.56 18.0269 20.2C17.2749 20.824 16.3549 21.136 15.2669 21.136C14.2749 21.136 13.4349 20.792 12.7469 20.104C12.0749 19.4 11.5709 18.48 11.2349 17.344C10.8989 16.192 10.7309 14.952 10.7309 13.624C10.7309 13.016 10.7869 12.496 10.8989 12.064C11.0269 11.616 11.1789 11.28 11.3549 11.056C11.5469 10.832 11.7309 10.728 11.9069 10.744C12.0989 10.744 12.1949 10.872 12.1949 11.128C12.1949 11.336 12.1389 11.664 12.0269 12.112C11.9149 12.608 11.8589 13.176 11.8589 13.816C11.8589 14.776 11.9949 15.712 12.2669 16.624C12.5549 17.536 12.9709 18.288 13.5149 18.88C14.0749 19.456 14.7309 19.744 15.4829 19.744C16.1069 19.744 16.6749 19.56 17.1869 19.192C17.6989 18.824 18.0989 18.36 18.3869 17.8C18.6909 17.24 18.8429 16.688 18.8429 16.144V12.328C19.0189 11.992 19.2589 11.824 19.5629 11.824C19.8349 11.824 20.0189 12.056 20.1149 12.52C20.2109 12.984 20.2589 13.64 20.2589 14.488C20.2589 15.208 20.2509 15.76 20.2349 16.144C20.3309 16.672 20.4749 17.208 20.6669 17.752C20.8749 18.296 21.1309 18.912 21.4349 19.6C21.8029 20.448 21.9869 20.968 21.9869 21.16C21.9869 21.64 21.7549 21.88 21.2909 21.88Z" fill="black" fill-opacity="0.75"/>
<path d="M24.107 22C23.451 20.72 22.931 19.216 22.547 17.488C22.179 15.76 21.995 14.264 21.995 13C21.995 12.504 22.107 12.184 22.331 12.04C22.459 11.96 22.555 11.92 22.619 11.92C22.731 11.92 22.811 12.008 22.859 12.184C22.923 12.36 22.987 12.68 23.051 13.144L23.171 14.008C23.347 13.144 23.683 12.464 24.179 11.968C24.691 11.456 25.315 11.2 26.051 11.2C26.867 11.2 27.475 11.36 27.875 11.68C28.275 11.984 28.475 12.496 28.475 13.216C27.675 12.832 26.947 12.64 26.291 12.64C25.667 12.64 25.131 12.808 24.683 13.144C24.235 13.48 23.923 13.976 23.747 14.632C23.603 15.08 23.531 15.504 23.531 15.904C23.531 16.336 23.587 16.744 23.699 17.128C23.827 17.496 24.019 17.952 24.275 18.496C24.515 19.056 24.699 19.536 24.827 19.936C24.971 20.336 25.051 20.768 25.067 21.232C25.067 21.504 24.971 21.704 24.779 21.832C24.587 21.944 24.363 22 24.107 22Z" fill="black" fill-opacity="0.75"/>
<path d="M33.4087 5.104C34.1287 5.104 34.8167 5.288 35.4727 5.656C36.1287 6.008 36.6567 6.464 37.0567 7.024C37.4727 7.584 37.6807 8.144 37.6807 8.704H37.1527C36.9127 8.704 36.6967 8.632 36.5047 8.488C36.3287 8.344 36.0967 8.112 35.8087 7.792C35.3927 7.344 35.0167 7.008 34.6807 6.784C34.3607 6.56 33.9447 6.448 33.4327 6.448C32.5527 6.448 31.8167 6.856 31.2247 7.672C30.6327 8.472 30.2807 9.416 30.1687 10.504C30.1207 11 30.0967 11.496 30.0967 11.992C30.0967 12.808 30.1527 13.56 30.2647 14.248C30.4727 14.28 30.9607 14.32 31.7287 14.368C32.4967 14.416 33.1287 14.456 33.6247 14.488C33.8007 14.488 34.1447 14.504 34.6567 14.536C34.8167 14.536 34.9287 14.576 34.9927 14.656C35.0727 14.72 35.1127 14.84 35.1127 15.016C35.1127 15.448 34.6247 15.664 33.6487 15.664C32.8007 15.664 31.7367 15.512 30.4567 15.208C30.6327 15.928 30.8567 16.592 31.1287 17.2C31.4007 17.792 31.7527 18.504 32.1847 19.336C32.4887 19.928 32.7127 20.392 32.8567 20.728C33.0007 21.048 33.0727 21.32 33.0727 21.544C33.0727 21.72 33.0167 21.848 32.9047 21.928C32.7927 21.992 32.6327 22.024 32.4247 22.024C31.9927 22.024 31.5847 21.568 31.2007 20.656C30.8327 19.728 30.4087 18.448 29.9287 16.816L29.4967 15.4C29.1447 15.432 28.7047 15.528 28.1767 15.688C28.1287 15.704 27.9607 15.752 27.6727 15.832C27.4007 15.896 27.1527 15.928 26.9287 15.928C26.6727 15.928 26.5447 15.776 26.5447 15.472C26.5447 15.072 26.7527 14.808 27.1687 14.68C27.5847 14.536 27.9767 14.456 28.3447 14.44C28.7127 14.408 28.9447 14.384 29.0407 14.368C29.0087 13.76 28.9927 13.216 28.9927 12.736C28.9927 10.672 29.3047 8.888 29.9287 7.384C30.5687 5.864 31.7287 5.104 33.4087 5.104Z" fill="black" fill-opacity="0.75"/>
<path d="M36.8375 19.168C37.0615 18.992 37.2775 18.904 37.4855 18.904C37.6775 18.904 37.8615 18.96 38.0375 19.072C38.2295 19.184 38.4215 19.328 38.6135 19.504C38.8055 19.664 38.9575 19.784 39.0695 19.864C39.4375 20.152 39.9415 20.376 40.5815 20.536C41.2215 20.696 41.9015 20.776 42.6215 20.776C43.4375 20.776 44.1655 20.624 44.8055 20.32C45.4615 20 45.7895 19.576 45.7895 19.048C45.7895 18.568 45.6135 18.192 45.2615 17.92C44.9095 17.632 44.4855 17.424 43.9895 17.296C43.4935 17.168 42.8375 17.048 42.0215 16.936C40.9175 16.808 40.0375 16.648 39.3815 16.456C38.7415 16.264 38.2295 15.952 37.8455 15.52C37.4615 15.072 37.2695 14.448 37.2695 13.648C37.2695 12.784 37.6775 12.144 38.4935 11.728C39.3095 11.296 40.2455 11.08 41.3015 11.08C42.2615 11.08 43.0775 11.288 43.7495 11.704C44.4375 12.104 44.7895 12.68 44.8055 13.432C44.8375 13.864 44.7735 14.208 44.6135 14.464C44.4535 14.704 44.2615 14.824 44.0375 14.824C43.9095 14.824 43.7975 14.776 43.7015 14.68C43.6215 14.584 43.5815 14.456 43.5815 14.296C43.5815 14.04 43.6695 13.76 43.8455 13.456C43.7655 13.072 43.5015 12.784 43.0535 12.592C42.6215 12.4 42.1015 12.304 41.4935 12.304C40.5975 12.304 39.8855 12.472 39.3575 12.808C38.8295 13.128 38.5655 13.512 38.5655 13.96C38.5655 14.44 38.7575 14.808 39.1415 15.064C39.5255 15.32 39.9895 15.504 40.5335 15.616C41.0935 15.712 41.8855 15.808 42.9095 15.904C43.7575 16.016 44.4455 16.152 44.9735 16.312C45.5175 16.472 45.9735 16.784 46.3415 17.248C46.7095 17.696 46.8935 18.344 46.8935 19.192C46.8935 20.072 46.4855 20.768 45.6695 21.28C44.8535 21.776 43.8775 22.024 42.7415 22.024C41.2855 22.024 39.9815 21.776 38.8295 21.28C37.6935 20.784 37.0295 20.08 36.8375 19.168Z" fill="black" fill-opacity="0.75"/>
<path d="M52.9124 22.024C51.0404 22.024 49.5844 21.6 48.5444 20.752C47.5204 19.888 47.0084 18.56 47.0084 16.768C47.0084 15.856 47.2324 14.992 47.6804 14.176C48.1444 13.344 48.7604 12.68 49.5284 12.184C50.3124 11.672 51.1524 11.416 52.0484 11.416C52.9604 11.416 53.7364 11.616 54.3764 12.016C55.0164 12.4 55.3364 12.96 55.3364 13.696C55.3364 14.208 55.2404 14.576 55.0484 14.8C54.8724 15.008 54.6724 15.112 54.4484 15.112C54.4484 14.344 54.2404 13.72 53.8244 13.24C53.4084 12.76 52.8164 12.52 52.0484 12.52C51.2804 12.52 50.6164 12.728 50.0564 13.144C49.4964 13.544 49.0644 14.08 48.7604 14.752C48.4724 15.408 48.3284 16.096 48.3284 16.816C48.3284 18.336 48.8404 19.368 49.8644 19.912C50.9044 20.456 52.2724 20.728 53.9684 20.728C54.5444 20.728 55.2964 20.696 56.2244 20.632C56.2564 20.632 56.3284 20.664 56.4404 20.728C56.5524 20.792 56.6404 20.832 56.7044 20.848V20.992C56.7044 21.456 56.2964 21.744 55.4804 21.856C54.6644 21.968 53.8084 22.024 52.9124 22.024Z" fill="black" fill-opacity="0.75"/>
<path d="M61.9205 22C60.2565 22 58.8085 21.712 57.5765 21.136C56.3605 20.544 55.7525 19.512 55.7525 18.04C55.7525 17.512 55.9125 17 56.2325 16.504C56.5525 16.008 57.0245 15.608 57.6485 15.304C58.2725 14.984 59.0325 14.824 59.9285 14.824C60.6165 14.824 61.2005 14.856 61.6805 14.92C62.1605 14.984 62.7125 15.16 63.3365 15.448C63.9605 15.736 64.6085 16.192 65.2805 16.816C65.0245 15.712 64.6405 14.744 64.1285 13.912C63.6165 13.08 63.0405 12.44 62.4005 11.992C61.7765 11.528 61.1605 11.296 60.5525 11.296C60.2645 11.296 59.9925 11.352 59.7365 11.464C59.4965 11.56 59.2005 11.704 58.8485 11.896C58.4485 12.152 58.1525 12.28 57.9605 12.28C57.8805 12.28 57.8085 12.256 57.7445 12.208C57.6965 12.144 57.6725 12.072 57.6725 11.992C57.6725 11.352 57.9525 10.856 58.5125 10.504C59.0885 10.152 59.7845 9.992 60.6005 10.024C61.7205 10.088 62.7445 10.568 63.6725 11.464C64.6005 12.344 65.3285 13.44 65.8565 14.752C66.4005 16.064 66.6725 17.352 66.6725 18.616C66.6725 18.824 66.6565 19.12 66.6245 19.504L65.8565 19.456C65.2485 18.224 64.4645 17.352 63.5045 16.84C62.5605 16.312 61.6085 16.048 60.6485 16.048C59.4165 16.048 58.5365 16.232 58.0085 16.6C57.4805 16.968 57.2165 17.504 57.2165 18.208C57.2165 18.944 57.5845 19.536 58.3205 19.984C59.0565 20.432 60.0005 20.656 61.1525 20.656C61.7925 20.656 62.3045 20.624 62.6885 20.56C63.0725 20.48 63.4725 20.376 63.8885 20.248C64.2245 20.136 64.5205 20.056 64.7765 20.008C65.0325 19.96 65.3605 19.936 65.7605 19.936C66.2085 19.936 66.4885 19.968 66.6005 20.032C66.7285 20.096 66.7925 20.24 66.7925 20.464C66.7925 20.624 66.4645 20.824 65.8085 21.064C65.1525 21.304 64.4165 21.52 63.6005 21.712C62.7845 21.904 62.2245 22 61.9205 22Z" fill="black" fill-opacity="0.75"/>
<path d="M69.6254 30.544C69.3054 30.544 68.9214 29.688 68.4734 27.976C68.0414 26.264 67.6494 24.36 67.2974 22.264C66.9614 20.184 66.7934 18.872 66.7934 18.328C66.7934 16.712 67.3374 15.536 68.4254 14.8C69.5134 14.048 70.9134 13.672 72.6254 13.672C73.5374 13.672 74.4014 13.864 75.2174 14.248C76.0334 14.616 76.6894 15.152 77.1854 15.856C77.6814 16.544 77.9294 17.344 77.9294 18.256C77.9294 19.392 77.5294 20.192 76.7294 20.656C75.9454 21.12 74.9534 21.352 73.7534 21.352C72.5054 21.352 71.4414 21.144 70.5614 20.728C69.6974 20.296 69.2654 19.712 69.2654 18.976L69.2894 18.736C69.4014 18.608 69.5214 18.544 69.6494 18.544C69.7614 18.544 69.8814 18.592 70.0094 18.688C70.1534 18.768 70.3054 18.864 70.4654 18.976C70.9614 19.344 71.4494 19.64 71.9294 19.864C72.4254 20.088 73.0414 20.2 73.7774 20.2C74.7854 20.2 75.4974 20.024 75.9134 19.672C76.3454 19.304 76.5614 18.728 76.5614 17.944C76.5614 17.368 76.3694 16.856 75.9854 16.408C75.6014 15.96 75.1054 15.616 74.4974 15.376C73.8894 15.136 73.2654 15.016 72.6254 15.016C71.1374 15.016 70.0174 15.336 69.2654 15.976C68.5134 16.6 68.1774 17.648 68.2574 19.12C68.4014 21.616 68.6254 23.712 68.9294 25.408C69.2494 27.104 69.8014 28.544 70.5854 29.728L70.6094 29.776C70.6094 29.808 70.5694 29.84 70.4894 29.872C70.4254 29.92 70.3774 29.96 70.3454 29.992C70.1534 30.296 69.9134 30.48 69.6254 30.544Z" fill="black" fill-opacity="0.75"/>
<path d="M83.5921 22C82.5681 22 81.6241 21.8 80.7601 21.4C79.8961 21 79.2081 20.432 78.6961 19.696C78.1841 18.96 77.9281 18.112 77.9281 17.152C77.9281 16.08 78.1281 15.08 78.5281 14.152C78.9281 13.208 79.5121 12.456 80.2801 11.896C81.0641 11.32 81.9761 11.032 83.0161 11.032C84.1041 11.032 84.9281 11.384 85.4881 12.088C86.0481 12.776 86.3121 13.648 86.2801 14.704C86.2801 15.648 85.9041 16.368 85.1521 16.864C84.4161 17.36 83.4721 17.608 82.3201 17.608C82.1441 17.608 81.8801 17.592 81.5281 17.56C80.9521 17.496 80.5441 17.408 80.3041 17.296C80.0641 17.184 79.9441 16.96 79.9441 16.624C79.9441 16.512 79.9761 16.432 80.0401 16.384C80.1041 16.32 80.2321 16.288 80.4241 16.288C80.6321 16.288 81.0001 16.336 81.5281 16.432C82.0401 16.528 82.4961 16.576 82.8961 16.576C84.3681 16.576 85.1041 15.936 85.1041 14.656C85.1041 13.888 84.9601 13.28 84.6721 12.832C84.4001 12.384 83.9121 12.16 83.2081 12.16C82.4401 12.16 81.7521 12.368 81.1441 12.784C80.5361 13.184 80.0641 13.712 79.7281 14.368C79.4081 15.024 79.2481 15.72 79.2481 16.456C79.2481 17.72 79.6001 18.76 80.3041 19.576C81.0081 20.376 82.0961 20.776 83.5681 20.776C83.7441 20.776 84.0401 20.76 84.4561 20.728C84.6321 20.712 84.8481 20.664 85.1041 20.584C85.3601 20.504 85.5441 20.448 85.6561 20.416C86.3441 20.176 86.8481 20.056 87.1681 20.056C87.4081 20.056 87.5921 20.12 87.7201 20.248C87.3201 20.856 86.7201 21.304 85.9201 21.592C85.1361 21.864 84.3601 22 83.5921 22Z" fill="black" fill-opacity="0.75"/>
<path d="M92.6699 22.024C90.7979 22.024 89.3419 21.6 88.3019 20.752C87.2779 19.888 86.7659 18.56 86.7659 16.768C86.7659 15.856 86.9899 14.992 87.4379 14.176C87.9019 13.344 88.5179 12.68 89.2859 12.184C90.0699 11.672 90.9099 11.416 91.8059 11.416C92.7179 11.416 93.4939 11.616 94.1339 12.016C94.7739 12.4 95.0939 12.96 95.0939 13.696C95.0939 14.208 94.9979 14.576 94.8059 14.8C94.6299 15.008 94.4299 15.112 94.2059 15.112C94.2059 14.344 93.9979 13.72 93.5819 13.24C93.1659 12.76 92.5739 12.52 91.8059 12.52C91.0379 12.52 90.3739 12.728 89.8139 13.144C89.2539 13.544 88.8219 14.08 88.5179 14.752C88.2299 15.408 88.0859 16.096 88.0859 16.816C88.0859 18.336 88.5979 19.368 89.6219 19.912C90.6619 20.456 92.0299 20.728 93.7259 20.728C94.3019 20.728 95.0539 20.696 95.9819 20.632C96.0139 20.632 96.0859 20.664 96.1979 20.728C96.3099 20.792 96.3979 20.832 96.4619 20.848V20.992C96.4619 21.456 96.0539 21.744 95.2379 21.856C94.4219 21.968 93.5659 22.024 92.6699 22.024Z" fill="black" fill-opacity="0.75"/>
<path d="M100.478 22.024C99.534 22.024 98.678 21.816 97.91 21.4C97.158 20.968 96.566 20.376 96.134 19.624C95.718 18.856 95.51 17.984 95.51 17.008C95.51 15.408 96.094 14.216 97.262 13.432C98.446 12.648 99.894 12.256 101.606 12.256C102.39 12.256 103.118 12.448 103.79 12.832C104.478 13.216 105.03 13.768 105.446 14.488C105.862 15.208 106.07 16.04 106.07 16.984C106.07 18.008 105.806 18.904 105.278 19.672C104.75 20.424 104.054 21.008 103.19 21.424C102.342 21.824 101.438 22.024 100.478 22.024ZM100.214 20.656C101.702 20.656 102.83 20.32 103.598 19.648C104.366 18.976 104.75 17.992 104.75 16.696C104.75 15.816 104.446 15.056 103.838 14.416C103.246 13.776 102.414 13.456 101.342 13.456C100.622 13.456 99.894 13.592 99.158 13.864C98.422 14.136 97.814 14.544 97.334 15.088C96.854 15.632 96.614 16.288 96.614 17.056C96.614 17.696 96.774 18.296 97.094 18.856C97.414 19.4 97.846 19.84 98.39 20.176C98.95 20.496 99.558 20.656 100.214 20.656Z" fill="black" fill-opacity="0.75"/>
<path d="M108.339 22.096C108.115 22.16 107.987 22.192 107.955 22.192C107.827 22.192 107.691 22.128 107.547 22C107.019 21.216 106.635 19.848 106.395 17.896C106.171 15.944 106.059 14.264 106.059 12.856C106.059 12.632 106.219 12.52 106.539 12.52C107.019 12.52 107.259 12.784 107.259 13.312C107.259 13.456 107.251 13.576 107.235 13.672C107.379 13.336 107.651 12.992 108.051 12.64C108.451 12.288 108.915 11.992 109.443 11.752C109.971 11.512 110.507 11.392 111.051 11.392C112.763 11.392 114.011 12.152 114.795 13.672C115.579 15.176 115.971 17.048 115.971 19.288C115.971 20.056 115.891 20.672 115.731 21.136C115.571 21.584 115.355 21.808 115.083 21.808C114.795 21.808 114.651 21.72 114.651 21.544C114.763 20.696 114.819 19.864 114.819 19.048C114.819 16.984 114.459 15.424 113.739 14.368C113.019 13.296 112.067 12.76 110.883 12.76C110.307 12.76 109.747 12.904 109.203 13.192C108.675 13.48 108.243 13.88 107.907 14.392C107.587 14.904 107.427 15.488 107.427 16.144C107.427 16.88 107.467 17.52 107.547 18.064C107.627 18.608 107.755 19.264 107.931 20.032C108.123 20.784 108.259 21.472 108.339 22.096Z" fill="black" fill-opacity="0.75"/>
<path d="M119.839 22C119.679 22.032 119.575 22.048 119.527 22.048C119.031 22.048 118.687 21.68 118.495 20.944C118.319 20.208 118.231 19.176 118.231 17.848C118.231 17.304 118.247 16.456 118.279 15.304C118.311 14.6 118.327 14.072 118.327 13.72C116.359 13.72 115.375 13.496 115.375 13.048C115.375 12.904 115.391 12.792 115.423 12.712C115.471 12.632 115.567 12.592 115.711 12.592L118.327 12.424C118.311 11.64 118.271 10.784 118.207 9.856C118.143 9.024 118.103 8.256 118.087 7.552C118.087 7.376 118.159 7.256 118.303 7.192C118.447 7.112 118.599 7.072 118.759 7.072C118.951 7.072 119.111 7.176 119.239 7.384C119.367 7.576 119.431 7.776 119.431 7.984L119.599 12.376L121.591 12.472C121.895 12.44 122.151 12.496 122.359 12.64C122.583 12.784 122.703 13.024 122.719 13.36C122.383 13.504 122.015 13.592 121.615 13.624C121.215 13.656 120.543 13.672 119.599 13.672C119.599 15.16 119.671 17.608 119.815 21.016C119.815 21.368 119.815 21.616 119.815 21.76C119.831 21.888 119.839 21.968 119.839 22Z" fill="black" fill-opacity="0.75"/>
<path d="M128.285 22C126.621 22 125.173 21.712 123.941 21.136C122.725 20.544 122.117 19.512 122.117 18.04C122.117 17.512 122.277 17 122.597 16.504C122.917 16.008 123.389 15.608 124.013 15.304C124.637 14.984 125.397 14.824 126.293 14.824C126.981 14.824 127.565 14.856 128.045 14.92C128.525 14.984 129.077 15.16 129.701 15.448C130.325 15.736 130.973 16.192 131.645 16.816C131.389 15.712 131.005 14.744 130.493 13.912C129.981 13.08 129.405 12.44 128.765 11.992C128.141 11.528 127.525 11.296 126.917 11.296C126.629 11.296 126.357 11.352 126.101 11.464C125.861 11.56 125.565 11.704 125.213 11.896C124.813 12.152 124.517 12.28 124.325 12.28C124.245 12.28 124.173 12.256 124.109 12.208C124.061 12.144 124.037 12.072 124.037 11.992C124.037 11.352 124.317 10.856 124.877 10.504C125.453 10.152 126.149 9.992 126.965 10.024C128.085 10.088 129.109 10.568 130.037 11.464C130.965 12.344 131.693 13.44 132.221 14.752C132.765 16.064 133.037 17.352 133.037 18.616C133.037 18.824 133.021 19.12 132.989 19.504L132.221 19.456C131.613 18.224 130.829 17.352 129.869 16.84C128.925 16.312 127.973 16.048 127.013 16.048C125.781 16.048 124.901 16.232 124.373 16.6C123.845 16.968 123.581 17.504 123.581 18.208C123.581 18.944 123.949 19.536 124.685 19.984C125.421 20.432 126.365 20.656 127.517 20.656C128.157 20.656 128.669 20.624 129.053 20.56C129.437 20.48 129.837 20.376 130.253 20.248C130.589 20.136 130.885 20.056 131.141 20.008C131.397 19.96 131.725 19.936 132.125 19.936C132.573 19.936 132.853 19.968 132.965 20.032C133.093 20.096 133.157 20.24 133.157 20.464C133.157 20.624 132.829 20.824 132.173 21.064C131.517 21.304 130.781 21.52 129.965 21.712C129.149 21.904 128.589 22 128.285 22Z" fill="black" fill-opacity="0.75"/>
<path d="M139.062 22.024C137.19 22.024 135.734 21.6 134.694 20.752C133.67 19.888 133.158 18.56 133.158 16.768C133.158 15.856 133.382 14.992 133.83 14.176C134.294 13.344 134.91 12.68 135.678 12.184C136.462 11.672 137.302 11.416 138.198 11.416C139.11 11.416 139.886 11.616 140.526 12.016C141.166 12.4 141.486 12.96 141.486 13.696C141.486 14.208 141.39 14.576 141.198 14.8C141.022 15.008 140.822 15.112 140.598 15.112C140.598 14.344 140.39 13.72 139.974 13.24C139.558 12.76 138.966 12.52 138.198 12.52C137.43 12.52 136.766 12.728 136.206 13.144C135.646 13.544 135.214 14.08 134.91 14.752C134.622 15.408 134.478 16.096 134.478 16.816C134.478 18.336 134.99 19.368 136.014 19.912C137.054 20.456 138.422 20.728 140.118 20.728C140.694 20.728 141.446 20.696 142.374 20.632C142.406 20.632 142.478 20.664 142.59 20.728C142.702 20.792 142.79 20.832 142.854 20.848V20.992C142.854 21.456 142.446 21.744 141.63 21.856C140.814 21.968 139.958 22.024 139.062 22.024Z" fill="black" fill-opacity="0.75"/>
<path d="M145.766 22C145.606 22.032 145.502 22.048 145.454 22.048C144.958 22.048 144.614 21.68 144.422 20.944C144.246 20.208 144.158 19.176 144.158 17.848C144.158 17.304 144.174 16.456 144.206 15.304C144.238 14.6 144.254 14.072 144.254 13.72C142.286 13.72 141.302 13.496 141.302 13.048C141.302 12.904 141.318 12.792 141.35 12.712C141.398 12.632 141.494 12.592 141.638 12.592L144.254 12.424C144.238 11.64 144.198 10.784 144.134 9.856C144.07 9.024 144.03 8.256 144.014 7.552C144.014 7.376 144.086 7.256 144.23 7.192C144.374 7.112 144.526 7.072 144.686 7.072C144.878 7.072 145.038 7.176 145.166 7.384C145.294 7.576 145.358 7.776 145.358 7.984L145.526 12.376L147.518 12.472C147.822 12.44 148.078 12.496 148.286 12.64C148.51 12.784 148.63 13.024 148.646 13.36C148.31 13.504 147.942 13.592 147.542 13.624C147.142 13.656 146.47 13.672 145.526 13.672C145.526 15.16 145.598 17.608 145.742 21.016C145.742 21.368 145.742 21.616 145.742 21.76C145.758 21.888 145.766 21.968 145.766 22Z" fill="black" fill-opacity="0.75"/>
<path d="M147.541 11.08C147.541 9.128 147.933 7.352 148.717 5.752C149.501 4.152 150.557 2.896 151.885 1.984C153.229 1.056 154.685 0.592003 156.253 0.592003C158.317 0.592003 160.085 1.032 161.557 1.912C163.029 2.776 164.133 3.904 164.869 5.296C165.621 6.672 165.997 8.104 165.997 9.592C165.997 10.472 165.869 11.4 165.613 12.376C165.373 13.352 164.965 14.192 164.389 14.896C163.813 15.584 163.069 15.928 162.157 15.928C161.469 15.928 160.717 15.472 159.901 14.56C159.389 15.216 158.765 15.8 158.029 16.312C157.293 16.808 156.573 17.056 155.869 17.056C155.149 17.056 154.509 16.872 153.949 16.504C153.405 16.136 152.981 15.656 152.677 15.064C152.389 14.456 152.245 13.808 152.245 13.12C152.245 12.032 152.469 11.016 152.917 10.072C153.381 9.112 154.029 8.344 154.861 7.768C155.693 7.192 156.661 6.904 157.765 6.904C158.517 6.904 159.229 7.008 159.901 7.216C160.573 7.424 161.117 7.72 161.533 8.104C161.949 8.488 162.157 8.92 162.157 9.4C162.157 9.624 162.093 9.84 161.965 10.048C161.837 10.256 161.677 10.408 161.485 10.504C161.005 9.688 160.469 9.072 159.877 8.656C159.285 8.24 158.549 8.032 157.669 8.032C156.837 8.032 156.109 8.28 155.485 8.776C154.877 9.256 154.413 9.888 154.093 10.672C153.773 11.456 153.613 12.272 153.613 13.12C153.613 13.904 153.789 14.536 154.141 15.016C154.493 15.48 155.029 15.712 155.749 15.712C156.325 15.712 156.933 15.472 157.573 14.992C158.229 14.512 158.709 14.008 159.013 13.48C158.981 12.648 158.965 12.12 158.965 11.896C158.965 11.24 159.013 10.776 159.109 10.504C159.221 10.216 159.413 10.072 159.685 10.072C159.957 10.072 160.149 10.2 160.261 10.456C160.389 10.696 160.453 11.064 160.453 11.56C160.453 11.96 160.413 12.52 160.333 13.24C160.621 13.704 160.909 14.04 161.197 14.248C161.485 14.456 161.805 14.56 162.157 14.56C162.253 14.56 162.397 14.544 162.589 14.512C163.053 14.416 163.461 14.072 163.813 13.48C164.165 12.888 164.429 12.224 164.605 11.488C164.781 10.752 164.869 10.144 164.869 9.664C164.933 8 164.573 6.576 163.789 5.392C163.005 4.192 161.933 3.288 160.573 2.68C159.213 2.056 157.717 1.744 156.085 1.744C154.773 1.744 153.549 2.12 152.413 2.872C151.293 3.608 150.389 4.712 149.701 6.184C149.013 7.64 148.669 9.4 148.669 11.464C148.669 13.432 149.109 15.112 149.989 16.504C150.869 17.88 152.045 18.92 153.517 19.624C154.989 20.328 156.597 20.68 158.341 20.68C159.205 20.68 159.933 20.632 160.525 20.536C161.133 20.44 161.773 20.304 162.445 20.128C162.973 19.984 163.413 19.88 163.765 19.816C164.133 19.752 164.533 19.72 164.965 19.72C165.045 19.88 165.085 20.008 165.085 20.104C165.085 20.504 164.741 20.856 164.053 21.16C163.365 21.448 162.477 21.672 161.389 21.832C160.317 21.976 159.213 22.048 158.077 22.048C156.397 22.048 154.749 21.664 153.133 20.896C151.533 20.112 150.197 18.896 149.125 17.248C148.069 15.6 147.541 13.544 147.541 11.08Z" fill="black" fill-opacity="0.75"/>
<path d="M165.815 19.168C166.039 18.992 166.255 18.904 166.463 18.904C166.655 18.904 166.839 18.96 167.015 19.072C167.207 19.184 167.399 19.328 167.591 19.504C167.783 19.664 167.935 19.784 168.047 19.864C168.415 20.152 168.919 20.376 169.559 20.536C170.199 20.696 170.879 20.776 171.599 20.776C172.415 20.776 173.143 20.624 173.783 20.32C174.439 20 174.767 19.576 174.767 19.048C174.767 18.568 174.591 18.192 174.239 17.92C173.887 17.632 173.463 17.424 172.967 17.296C172.471 17.168 171.815 17.048 170.999 16.936C169.895 16.808 169.015 16.648 168.359 16.456C167.719 16.264 167.207 15.952 166.823 15.52C166.439 15.072 166.247 14.448 166.247 13.648C166.247 12.784 166.655 12.144 167.471 11.728C168.287 11.296 169.223 11.08 170.279 11.08C171.239 11.08 172.055 11.288 172.727 11.704C173.415 12.104 173.767 12.68 173.783 13.432C173.815 13.864 173.751 14.208 173.591 14.464C173.431 14.704 173.239 14.824 173.015 14.824C172.887 14.824 172.775 14.776 172.679 14.68C172.599 14.584 172.559 14.456 172.559 14.296C172.559 14.04 172.647 13.76 172.823 13.456C172.743 13.072 172.479 12.784 172.031 12.592C171.599 12.4 171.079 12.304 170.471 12.304C169.575 12.304 168.863 12.472 168.335 12.808C167.807 13.128 167.543 13.512 167.543 13.96C167.543 14.44 167.735 14.808 168.119 15.064C168.503 15.32 168.967 15.504 169.511 15.616C170.071 15.712 170.863 15.808 171.887 15.904C172.735 16.016 173.423 16.152 173.951 16.312C174.495 16.472 174.951 16.784 175.319 17.248C175.687 17.696 175.871 18.344 175.871 19.192C175.871 20.072 175.463 20.768 174.647 21.28C173.831 21.776 172.855 22.024 171.719 22.024C170.263 22.024 168.959 21.776 167.807 21.28C166.671 20.784 166.007 20.08 165.815 19.168Z" fill="black" fill-opacity="0.75"/>
<path d="M177.786 22.024C177.386 22.024 177.186 21.792 177.186 21.328C177.186 21.232 177.218 21.032 177.282 20.728C177.362 20.424 177.402 20.088 177.402 19.72V16.816C177.322 15.68 177.122 14.296 176.802 12.664C176.45 10.872 176.178 9.208 175.986 7.672C176.034 7.4 176.162 7.264 176.37 7.264C176.642 7.264 176.97 7.984 177.354 9.424C177.738 10.848 178.13 13.208 178.53 16.504C178.85 15.704 179.29 14.896 179.85 14.08C180.41 13.248 181.002 12.56 181.626 12.016C182.25 11.472 182.794 11.2 183.258 11.2C183.45 11.2 183.57 11.256 183.618 11.368C183.682 11.48 183.706 11.64 183.69 11.848C182.746 12.68 181.794 13.648 180.834 14.752C179.874 15.856 179.394 16.712 179.394 17.32C179.394 17.688 179.698 18.112 180.306 18.592C180.914 19.056 181.666 19.472 182.562 19.84C183.458 20.192 184.298 20.392 185.082 20.44C185.386 20.488 185.538 20.672 185.538 20.992C185.538 21.536 185.026 21.808 184.002 21.808C183.186 21.808 182.29 21.48 181.314 20.824C180.354 20.168 179.522 19.48 178.818 18.76C178.77 19.032 178.738 19.272 178.722 19.48C178.706 19.672 178.69 19.84 178.674 19.984C178.61 20.688 178.522 21.208 178.41 21.544C178.314 21.864 178.106 22.024 177.786 22.024Z" fill="black" fill-opacity="0.75"/>
<path d="M186.197 22.024C185.829 22.024 185.533 21.488 185.309 20.416C185.085 19.328 184.941 18.392 184.877 17.608C184.813 16.824 184.725 15.584 184.613 13.888C184.597 13.616 184.589 13.264 184.589 12.832C184.589 12.288 184.629 11.912 184.709 11.704C184.805 11.496 184.957 11.392 185.165 11.392C185.341 11.392 185.477 11.432 185.573 11.512C185.685 11.576 185.781 11.688 185.861 11.848L185.837 12.808C185.837 13.832 185.885 14.8 185.981 15.712C186.093 16.624 186.261 17.848 186.485 19.384C186.613 20.056 186.701 20.608 186.749 21.04C186.781 21.264 186.741 21.488 186.629 21.712C186.517 21.92 186.373 22.024 186.197 22.024ZM185.597 8.824C185.245 8.824 184.981 8.688 184.805 8.416C184.645 8.144 184.565 7.808 184.565 7.408C184.565 7.232 184.573 7.104 184.589 7.024C184.573 6.768 184.717 6.64 185.021 6.64C185.245 6.64 185.469 6.696 185.693 6.808C185.933 6.904 186.005 6.976 185.909 7.024C186.069 7.44 186.149 7.768 186.149 8.008C186.149 8.216 186.101 8.384 186.005 8.512C185.909 8.624 185.773 8.728 185.597 8.824Z" fill="black" fill-opacity="0.75"/>
<path d="M198.982 5.104C199.702 5.104 200.39 5.288 201.046 5.656C201.702 6.008 202.23 6.464 202.63 7.024C203.046 7.584 203.254 8.144 203.254 8.704C203.014 8.784 202.822 8.824 202.678 8.824C202.406 8.824 202.182 8.752 202.006 8.608C201.83 8.448 201.614 8.2 201.358 7.864C201.006 7.4 200.67 7.048 200.35 6.808C200.03 6.568 199.582 6.448 199.006 6.448C198.126 6.448 197.39 6.856 196.798 7.672C196.206 8.472 195.854 9.416 195.742 10.504C195.694 11 195.67 11.488 195.67 11.968C195.67 12.768 195.726 13.512 195.838 14.2L196.534 14.272C197.846 14.432 199.078 14.52 200.23 14.536C200.39 14.536 200.502 14.576 200.566 14.656C200.646 14.72 200.686 14.84 200.686 15.016C200.686 15.448 200.198 15.664 199.222 15.664C198.374 15.664 197.31 15.512 196.03 15.208C196.206 15.928 196.43 16.592 196.702 17.2C196.974 17.792 197.326 18.504 197.758 19.336C198.062 19.928 198.286 20.392 198.43 20.728C198.574 21.048 198.646 21.32 198.646 21.544C198.646 21.72 198.59 21.848 198.478 21.928C198.366 21.992 198.206 22.024 197.998 22.024C197.566 22.024 197.158 21.568 196.774 20.656C196.406 19.728 195.982 18.448 195.502 16.816L195.07 15.4L195.022 15.112C194.686 15.112 193.958 15.128 192.838 15.16C191.686 15.192 190.718 15.208 189.934 15.208C190.19 15.816 190.67 16.864 191.374 18.352C191.806 19.248 192.11 19.928 192.286 20.392C192.462 20.84 192.55 21.224 192.55 21.544C192.55 21.72 192.494 21.848 192.382 21.928C192.27 21.992 192.11 22.024 191.902 22.024C191.678 22.024 191.454 21.792 191.23 21.328C191.006 20.848 190.63 19.88 190.102 18.424C189.43 16.6 189.054 15.592 188.974 15.4C188.622 15.432 188.182 15.528 187.654 15.688C187.606 15.704 187.438 15.752 187.15 15.832C186.878 15.896 186.63 15.928 186.406 15.928C186.15 15.928 186.022 15.776 186.022 15.472C186.022 15.072 186.23 14.808 186.646 14.68C187.062 14.536 187.454 14.456 187.822 14.44C188.19 14.408 188.422 14.384 188.518 14.368C188.486 13.92 188.47 13.52 188.47 13.168C188.47 11.648 188.75 10.328 189.31 9.208C189.886 8.072 190.918 7.504 192.406 7.504C193.334 7.504 194.23 7.816 195.094 8.44C195.398 7.352 195.878 6.528 196.534 5.968C197.19 5.392 198.006 5.104 198.982 5.104ZM189.742 14.248C189.934 14.264 190.182 14.272 190.486 14.272C190.79 14.256 191.102 14.248 191.422 14.248C193.182 14.2 194.342 14.184 194.902 14.2C194.774 13.176 194.71 12.28 194.71 11.512C194.71 11.048 194.734 10.6 194.782 10.168C194.414 9.752 194.054 9.432 193.702 9.208C193.366 8.968 192.942 8.848 192.43 8.848C191.406 8.848 190.686 9.184 190.27 9.856C189.854 10.512 189.646 11.408 189.646 12.544C189.646 13.168 189.678 13.736 189.742 14.248Z" fill="black" fill-opacity="0.75"/>
<path d="M203.824 22C203.536 22 203.28 21.872 203.056 21.616C202.848 21.344 202.68 21.032 202.552 20.68C202.44 20.312 202.384 20 202.384 19.744C202.384 19.232 202.456 18.808 202.6 18.472C202.76 18.12 202.944 17.872 203.152 17.728C203.36 17.568 203.552 17.488 203.728 17.488C204.288 17.488 204.736 17.76 205.072 18.304C205.408 18.832 205.576 19.4 205.576 20.008C205.576 20.248 205.48 20.528 205.288 20.848C205.112 21.168 204.888 21.44 204.616 21.664C204.344 21.888 204.08 22 203.824 22Z" fill="black" fill-opacity="0.75"/>
<path d="M211.171 22.024C209.299 22.024 207.843 21.6 206.803 20.752C205.779 19.888 205.267 18.56 205.267 16.768C205.267 15.856 205.491 14.992 205.939 14.176C206.403 13.344 207.019 12.68 207.787 12.184C208.571 11.672 209.411 11.416 210.307 11.416C211.219 11.416 211.995 11.616 212.635 12.016C213.275 12.4 213.595 12.96 213.595 13.696C213.595 14.208 213.499 14.576 213.307 14.8C213.131 15.008 212.931 15.112 212.707 15.112C212.707 14.344 212.499 13.72 212.083 13.24C211.667 12.76 211.075 12.52 210.307 12.52C209.539 12.52 208.875 12.728 208.315 13.144C207.755 13.544 207.323 14.08 207.019 14.752C206.731 15.408 206.587 16.096 206.587 16.816C206.587 18.336 207.099 19.368 208.123 19.912C209.163 20.456 210.531 20.728 212.227 20.728C212.803 20.728 213.555 20.696 214.483 20.632C214.515 20.632 214.587 20.664 214.699 20.728C214.811 20.792 214.899 20.832 214.963 20.848V20.992C214.963 21.456 214.555 21.744 213.739 21.856C212.923 21.968 212.067 22.024 211.171 22.024Z" fill="black" fill-opacity="0.75"/>
<path d="M218.979 22.024C218.035 22.024 217.179 21.816 216.411 21.4C215.659 20.968 215.067 20.376 214.635 19.624C214.219 18.856 214.011 17.984 214.011 17.008C214.011 15.408 214.595 14.216 215.763 13.432C216.947 12.648 218.395 12.256 220.107 12.256C220.891 12.256 221.619 12.448 222.291 12.832C222.979 13.216 223.531 13.768 223.947 14.488C224.363 15.208 224.571 16.04 224.571 16.984C224.571 18.008 224.307 18.904 223.779 19.672C223.251 20.424 222.555 21.008 221.691 21.424C220.843 21.824 219.939 22.024 218.979 22.024ZM218.715 20.656C220.203 20.656 221.331 20.32 222.099 19.648C222.867 18.976 223.251 17.992 223.251 16.696C223.251 15.816 222.947 15.056 222.339 14.416C221.747 13.776 220.915 13.456 219.843 13.456C219.123 13.456 218.395 13.592 217.659 13.864C216.923 14.136 216.315 14.544 215.835 15.088C215.355 15.632 215.115 16.288 215.115 17.056C215.115 17.696 215.275 18.296 215.595 18.856C215.915 19.4 216.347 19.84 216.891 20.176C217.451 20.496 218.059 20.656 218.715 20.656Z" fill="black" fill-opacity="0.75"/>
<path d="M240.136 22.024C239.896 22.024 239.752 21.96 239.704 21.832C239.656 21.688 239.632 21.472 239.632 21.184C239.648 21.072 239.656 20.944 239.656 20.8C239.656 20.64 239.664 20.52 239.68 20.44C239.776 19.672 239.824 18.944 239.824 18.256C239.824 16.736 239.568 15.552 239.056 14.704C238.544 13.84 237.736 13.408 236.632 13.408C236.024 13.408 235.416 13.56 234.808 13.864C234.216 14.168 233.728 14.544 233.344 14.992C232.976 15.44 232.792 15.848 232.792 16.216C232.872 16.68 233.016 17.248 233.224 17.92C233.24 18 233.304 18.248 233.416 18.664C233.544 19.08 233.608 19.456 233.608 19.792L233.632 20.248C233.632 20.504 233.504 20.632 233.248 20.632C232.928 20.632 232.664 20.424 232.456 20.008C232.264 19.592 232.048 18.944 231.808 18.064C231.568 17.2 231.336 16.488 231.112 15.928C230.888 15.368 230.584 14.888 230.2 14.488C229.816 14.088 229.328 13.888 228.736 13.888C227.92 13.888 227.28 14.168 226.816 14.728C226.368 15.288 226.144 15.976 226.144 16.792C226.144 17.336 226.192 18.056 226.288 18.952C226.368 19.624 226.408 20.2 226.408 20.68C226.408 20.968 226.376 21.184 226.312 21.328C226.248 21.472 226.096 21.544 225.856 21.544C225.536 21.544 225.312 21.44 225.184 21.232C225.056 21.008 224.992 20.672 224.992 20.224C224.992 19.344 224.944 18.28 224.848 17.032C224.832 16.872 224.8 16.464 224.752 15.808C224.704 15.136 224.696 14.464 224.728 13.792L224.752 13C224.848 12.904 224.96 12.856 225.088 12.856C225.264 12.856 225.408 12.968 225.52 13.192C225.648 13.4 225.712 13.72 225.712 14.152C225.952 13.736 226.304 13.36 226.768 13.024C227.232 12.688 227.72 12.52 228.232 12.52C229.112 12.52 229.84 12.704 230.416 13.072C231.008 13.424 231.544 14 232.024 14.8C232.472 13.984 233.144 13.288 234.04 12.712C234.952 12.136 235.888 11.848 236.848 11.848C237.84 11.848 238.664 12.224 239.32 12.976C239.992 13.728 240.48 14.632 240.784 15.688C241.104 16.744 241.264 17.72 241.264 18.616C241.264 19.416 241.192 20.184 241.048 20.92C240.92 21.656 240.616 22.024 240.136 22.024Z" fill="black" fill-opacity="0.75"/>
</svg>
