<svg width="116" height="14" viewBox="0 0 116 14" fill="#000000" xmlns="http://www.w3.org/2000/svg">
<path d="M2.63999 3.13999C2.85599 3.13999 3.00399 3.50399 3.08399 4.23199C3.00399 4.43199 2.87199 4.53199 2.68799 4.53199C2.55999 4.50799 2.43199 4.35999 2.30399 4.08799L2.08799 4.01599C1.71199 4.01599 1.37199 4.26399 1.06799 4.75999V4.86799C1.06799 4.98799 1.63199 5.18799 2.75999 5.46799C3.23199 5.74799 3.46799 6.08799 3.46799 6.48799C3.46799 7.14399 2.93999 7.70399 1.88399 8.16799L1.43999 8.23999C0.767985 8.16799 0.431985 7.83199 0.431985 7.23199V7.19599C0.431985 7.00399 0.555985 6.89199 0.803985 6.85999C0.995985 6.85999 1.12399 7.05999 1.18799 7.45999L1.28399 7.53199H1.48799C1.94399 7.53199 2.36799 7.21999 2.75999 6.59599V6.43999C2.75999 6.19999 2.23599 5.97599 1.18799 5.76799C0.635985 5.54399 0.359985 5.23199 0.359985 4.83199C0.359985 4.31199 0.795985 3.82399 1.66799 3.36799C2.05199 3.31999 2.37599 3.24399 2.63999 3.13999Z" fill="currentColor"/>
<path d="M6.31967 3.13999C6.53567 3.13999 6.68367 3.50399 6.76367 4.23199C6.68367 4.43199 6.55167 4.53199 6.36767 4.53199C6.23967 4.50799 6.11167 4.35999 5.98367 4.08799L5.76767 4.01599C5.39167 4.01599 5.05167 4.26399 4.74767 4.75999V4.86799C4.74767 4.98799 5.31167 5.18799 6.43967 5.46799C6.91167 5.74799 7.14767 6.08799 7.14767 6.48799C7.14767 7.14399 6.61967 7.70399 5.56367 8.16799L5.11967 8.23999C4.44767 8.16799 4.11167 7.83199 4.11167 7.23199V7.19599C4.11167 7.00399 4.23567 6.89199 4.48367 6.85999C4.67567 6.85999 4.80367 7.05999 4.86767 7.45999L4.96367 7.53199H5.16767C5.62367 7.53199 6.04767 7.21999 6.43967 6.59599V6.43999C6.43967 6.19999 5.91567 5.97599 4.86767 5.76799C4.31567 5.54399 4.03967 5.23199 4.03967 4.83199C4.03967 4.31199 4.47567 3.82399 5.34767 3.36799C5.73167 3.31999 6.05567 3.24399 6.31967 3.13999Z" fill="currentColor"/>
<path d="M8.99136 4.69999L11.1634 4.55599C11.3634 4.55599 11.4794 4.67999 11.5114 4.92799C11.5114 5.17599 11.1354 5.29999 10.3834 5.29999C9.83136 5.37999 9.34336 5.41999 8.91936 5.41999C8.39936 5.35599 8.13936 5.20799 8.13936 4.97599C8.13936 4.81599 8.24736 4.68799 8.46336 4.59199L8.91936 4.69999H8.99136Z" fill="currentColor"/>
<path d="M13.8387 3.93199L14.3307 3.85999C14.5307 3.85999 14.6427 3.98399 14.6667 4.23199C14.6667 4.44799 14.4067 4.58799 13.8867 4.65199C13.5587 4.90799 13.3947 5.23599 13.3947 5.63599V6.03199C13.5547 6.91199 13.8267 7.35199 14.2107 7.35199H14.3307C14.5547 7.35199 14.8907 7.13999 15.3387 6.71599H15.4107C15.5707 6.71599 15.6987 6.82799 15.7947 7.05199C15.6827 7.39599 15.3227 7.70799 14.7147 7.98799C14.6027 8.03599 14.4627 8.05999 14.2947 8.05999C13.4707 8.05999 12.9347 7.41199 12.6867 6.11599V5.85199C12.6867 4.91599 13.0707 4.27599 13.8387 3.93199Z" fill="currentColor"/>
<path d="M18.3199 3.47599C18.9119 3.47599 19.3599 3.91599 19.6639 4.79599L19.7119 5.04799C19.7119 5.90399 19.3119 6.77999 18.5119 7.67599C18.1919 7.97199 17.8679 8.11999 17.5399 8.11999C17.0599 8.11999 16.7199 7.84399 16.5199 7.29199C16.4479 7.03599 16.4119 6.81199 16.4119 6.61999V6.47599C16.4119 5.21199 16.8719 4.25199 17.7919 3.59599C17.9519 3.51599 18.1279 3.47599 18.3199 3.47599ZM17.1199 6.59599C17.1199 7.13999 17.2599 7.41199 17.5399 7.41199C18.1239 7.41199 18.6079 6.66399 18.9919 5.16799V4.93999C18.8559 4.44399 18.6039 4.19599 18.2359 4.19599C18.0919 4.19599 18.0199 4.29599 18.0199 4.49599C18.0199 4.63199 17.8599 4.73999 17.5399 4.81999C17.2599 5.29199 17.1199 5.88399 17.1199 6.59599Z" fill="currentColor"/>
<path d="M21.8036 3.95599C22.4836 4.01199 22.8236 4.34399 22.8236 4.95199L22.8476 5.10799L22.8236 6.97999C22.8236 7.19599 22.9476 7.48799 23.1956 7.85599V7.87999C23.1316 8.11199 23.0156 8.22799 22.8476 8.22799C22.3516 8.01999 22.1036 7.57999 22.1036 6.90799V6.75199L22.0676 6.72799L22.1036 6.67999V6.65599L22.1396 4.99999C22.1396 4.76799 22.0396 4.65199 21.8396 4.65199H21.6956C21.2956 4.81199 21.0956 5.68799 21.0956 7.27999C21.0956 7.83199 20.9556 8.10799 20.6756 8.10799C20.4596 8.10799 20.3476 7.97199 20.3396 7.69999V6.49999C20.3396 4.94799 20.4756 4.17199 20.7476 4.17199L20.8676 4.13599L21.1196 4.17199C21.3356 4.02799 21.5636 3.95599 21.8036 3.95599Z" fill="currentColor"/>
<path d="M24.9877 0.715987C25.2117 0.763988 25.3237 0.875988 25.3237 1.05199L25.2517 1.57999V1.73599C25.2517 2.08799 25.2917 2.45999 25.3717 2.85199H25.3957C26.3237 2.57199 26.8997 2.43199 27.1237 2.43199C27.3557 2.49599 27.4717 2.61199 27.4717 2.77999C27.4717 3.05199 27.1957 3.18799 26.6437 3.18799L25.3957 3.63199C25.3957 4.71199 25.5117 6.17999 25.7437 8.03599C25.6957 8.25199 25.5797 8.35999 25.3957 8.35999H25.3717C25.0917 8.35999 24.9517 7.99999 24.9517 7.27999C24.8477 6.74399 24.7597 5.57999 24.6877 3.78799H24.4717C23.7197 3.73999 23.3437 3.56399 23.3437 3.25999C23.3437 3.17199 23.4277 3.06399 23.5957 2.93599H23.7157L24.2677 3.07999H24.6517L24.5437 1.57999C24.5437 1.00399 24.6917 0.715987 24.9877 0.715987Z" fill="currentColor"/>
<path d="M30.0814 3.36799C30.4334 3.36799 30.6094 3.50799 30.6094 3.78799L30.5014 4.01599L30.4294 6.21199C30.4294 7.20399 30.6294 7.81999 31.0294 8.05999L31.0534 8.23999C31.0294 8.47199 30.9214 8.58799 30.7294 8.58799H30.6574C30.0574 8.17999 29.7574 7.55599 29.7574 6.71599H29.6734C29.3534 7.61199 28.9654 8.05999 28.5094 8.05999C28.0854 7.93999 27.8734 7.62399 27.8734 7.11199C27.8734 5.98399 28.3254 4.85999 29.2294 3.73999C29.5334 3.49199 29.8174 3.36799 30.0814 3.36799ZM28.6294 6.63199L28.5814 6.96799V7.19599H28.7014C29.3014 5.69999 29.6014 4.78799 29.6014 4.45999H29.5534C29.0894 4.97999 28.7814 5.70399 28.6294 6.63199Z" fill="currentColor"/>
<path d="M32.5653 3.93199L33.0573 3.85999C33.2573 3.85999 33.3693 3.98399 33.3933 4.23199C33.3933 4.44799 33.1333 4.58799 32.6133 4.65199C32.2853 4.90799 32.1213 5.23599 32.1213 5.63599V6.03199C32.2813 6.91199 32.5533 7.35199 32.9373 7.35199H33.0573C33.2813 7.35199 33.6173 7.13999 34.0653 6.71599H34.1373C34.2973 6.71599 34.4253 6.82799 34.5213 7.05199C34.4093 7.39599 34.0493 7.70799 33.4413 7.98799C33.3293 8.03599 33.1893 8.05999 33.0213 8.05999C32.1973 8.05999 31.6613 7.41199 31.4133 6.11599V5.85199C31.4133 4.91599 31.7973 4.27599 32.5653 3.93199Z" fill="currentColor"/>
<path d="M36.5424 0.715987C36.7664 0.763988 36.8784 0.875988 36.8784 1.05199L36.8064 1.57999V1.73599C36.8064 2.08799 36.8464 2.45999 36.9264 2.85199H36.9504C37.8784 2.57199 38.4544 2.43199 38.6784 2.43199C38.9104 2.49599 39.0264 2.61199 39.0264 2.77999C39.0264 3.05199 38.7504 3.18799 38.1984 3.18799L36.9504 3.63199C36.9504 4.71199 37.0664 6.17999 37.2984 8.03599C37.2504 8.25199 37.1344 8.35999 36.9504 8.35999H36.9264C36.6464 8.35999 36.5064 7.99999 36.5064 7.27999C36.4024 6.74399 36.3144 5.57999 36.2424 3.78799H36.0264C35.2744 3.73999 34.8984 3.56399 34.8984 3.25999C34.8984 3.17199 34.9824 3.06399 35.1504 2.93599H35.2704L35.8224 3.07999H36.2064L36.0984 1.57999C36.0984 1.00399 36.2464 0.715987 36.5424 0.715987Z" fill="currentColor"/>
<path d="M40.364 7.29199C40.532 7.29199 40.632 7.42799 40.664 7.69999C40.616 7.97999 40.476 8.11999 40.244 8.11999C40.084 8.11999 39.972 7.97999 39.908 7.69999C40.004 7.42799 40.156 7.29199 40.364 7.29199Z" fill="currentColor"/>
<path d="M43.0477 4.43599C43.8957 4.43599 44.3957 4.96799 44.5477 6.03199C44.5477 6.97599 44.1077 7.65199 43.2277 8.05999C43.1317 8.10799 42.9997 8.13199 42.8317 8.13199H42.7477L42.4837 8.10799V8.13199L42.5317 11.336C42.4757 11.584 42.3477 11.708 42.1477 11.708C41.9237 11.636 41.8117 11.52 41.8117 11.36L41.7037 4.83199C41.7037 4.62399 41.8277 4.51599 42.0757 4.50799L42.3277 4.61599C42.5517 4.49599 42.7917 4.43599 43.0477 4.43599ZM42.4477 5.70799L42.4117 6.07999L42.4477 7.35199L42.7837 7.43599C43.3197 7.43599 43.6677 7.04399 43.8277 6.25999V6.07999C43.7717 5.44799 43.5477 5.13199 43.1557 5.13199H42.9757C42.6237 5.13199 42.4477 5.32399 42.4477 5.70799Z" fill="currentColor"/>
<path d="M45.5908 4.38799L45.8068 4.26799C45.9988 4.26799 46.1388 4.38399 46.2268 4.61599C46.0988 5.20799 46.0348 5.81599 46.0348 6.43999C46.0348 6.75199 46.1268 7.09199 46.3108 7.45999H46.3828C46.6148 7.45999 46.8908 6.54399 47.2108 4.71199C47.3228 4.61599 47.4308 4.56799 47.5348 4.56799C47.7828 4.56799 47.9068 5.00799 47.9068 5.88799C48.0108 6.85599 48.1268 7.33999 48.2548 7.33999L48.4348 7.26799C48.6668 7.35599 48.7828 7.47999 48.7828 7.63999C48.6388 7.94399 48.4388 8.09599 48.1828 8.09599C47.8948 8.09599 47.6188 7.80799 47.3548 7.23199C47.0348 7.90399 46.7108 8.23999 46.3828 8.23999C45.8948 8.23999 45.5548 7.73199 45.3628 6.71599L45.3268 6.33199V6.21199C45.3268 5.57199 45.4148 4.96399 45.5908 4.38799Z" fill="currentColor"/>
<path d="M50.5126 4.43599C51.3606 4.43599 51.8606 4.96799 52.0126 6.03199C52.0126 6.97599 51.5726 7.65199 50.6926 8.05999C50.5966 8.10799 50.4646 8.13199 50.2966 8.13199H50.2126L49.9486 8.10799V8.13199L49.9966 11.336C49.9406 11.584 49.8126 11.708 49.6126 11.708C49.3886 11.636 49.2766 11.52 49.2766 11.36L49.1686 4.83199C49.1686 4.62399 49.2926 4.51599 49.5406 4.50799L49.7926 4.61599C50.0166 4.49599 50.2566 4.43599 50.5126 4.43599ZM49.9126 5.70799L49.8766 6.07999L49.9126 7.35199L50.2486 7.43599C50.7846 7.43599 51.1326 7.04399 51.2926 6.25999V6.07999C51.2366 5.44799 51.0126 5.13199 50.6206 5.13199H50.4406C50.0886 5.13199 49.9126 5.32399 49.9126 5.70799Z" fill="currentColor"/>
<path d="M54.0516 4.43599C54.8996 4.43599 55.3996 4.96799 55.5516 6.03199C55.5516 6.97599 55.1116 7.65199 54.2316 8.05999C54.1356 8.10799 54.0036 8.13199 53.8356 8.13199H53.7516L53.4876 8.10799V8.13199L53.5356 11.336C53.4796 11.584 53.3516 11.708 53.1516 11.708C52.9276 11.636 52.8156 11.52 52.8156 11.36L52.7076 4.83199C52.7076 4.62399 52.8316 4.51599 53.0796 4.50799L53.3316 4.61599C53.5556 4.49599 53.7956 4.43599 54.0516 4.43599ZM53.4516 5.70799L53.4156 6.07999L53.4516 7.35199L53.7876 7.43599C54.3236 7.43599 54.6716 7.04399 54.8316 6.25999V6.07999C54.7756 5.44799 54.5516 5.13199 54.1596 5.13199H53.9796C53.6276 5.13199 53.4516 5.32399 53.4516 5.70799Z" fill="currentColor"/>
<path d="M56.4987 4.39999C56.7787 4.39999 56.9707 5.01599 57.0747 6.24799C57.2107 6.81599 57.3107 7.09999 57.3747 7.09999H57.4467C57.6467 6.59599 57.7467 6.09599 57.7467 5.59999L57.6747 4.77199C57.7627 4.55599 57.8867 4.44799 58.0467 4.44799C58.3427 4.44799 58.4907 4.97199 58.4907 6.01999C58.6667 7.10799 58.7547 8.11999 58.7547 9.05599V9.61999C58.7547 11.34 58.2667 12.5 57.2907 13.1L57.0267 13.148C56.5707 13.148 56.1467 12.724 55.7547 11.876L55.6467 11.156V11.12C55.6467 10.592 55.7947 10.328 56.0907 10.328L56.3907 10.52L56.3547 11.276C56.3547 11.644 56.5427 12.016 56.9187 12.392H57.0747C57.5147 12.392 57.8387 11.552 58.0467 9.87199L58.0707 9.17599C58.0627 8.36799 58.0307 7.85199 57.9747 7.62799C57.6547 7.90799 57.4027 8.04799 57.2187 8.04799C56.8107 8.04799 56.4467 6.95599 56.1267 4.77199L56.0907 4.74799C56.0907 4.56399 56.2267 4.44799 56.4987 4.39999Z" fill="currentColor"/>
<path d="M62.5305 1.61599C62.7545 1.61599 62.8865 1.77999 62.9265 2.10799C62.9265 2.55599 62.4025 3.59199 61.3545 5.21599C61.3545 5.26399 61.5785 5.47599 62.0265 5.85199C62.3785 6.27599 62.5545 6.72799 62.5545 7.20799C62.5545 7.98399 62.0705 8.59199 61.1025 9.03199H60.9105C60.3345 9.03199 59.9825 8.62399 59.8545 7.80799V7.65199C59.8545 7.21199 60.0465 6.46399 60.4305 5.40799C59.6945 4.80799 59.3265 4.23199 59.3265 3.67999V3.63199C59.3265 2.86399 59.8265 2.29199 60.8265 1.91599L61.2105 1.87999C61.5145 1.87999 61.7785 2.00399 62.0025 2.25199V2.35999C62.0025 2.51999 61.8865 2.64399 61.6545 2.73199C61.4385 2.63599 61.2785 2.58799 61.1745 2.58799H61.1025C60.3985 2.76399 60.0465 3.10399 60.0465 3.60799V3.71599C60.0465 4.09999 60.2985 4.44799 60.8025 4.75999C61.7545 3.32799 62.2305 2.46799 62.2305 2.17999L62.1465 2.10799V1.95199C62.1465 1.75199 62.2745 1.63999 62.5305 1.61599ZM61.0545 5.93599H61.0305C60.7265 6.63999 60.5745 7.22399 60.5745 7.68799V7.87999C60.5745 8.08799 60.6585 8.23999 60.8265 8.33599H60.9105C61.2625 8.33599 61.5625 8.03599 61.8105 7.43599L61.8465 7.23199V7.05199C61.8465 6.69199 61.5825 6.31999 61.0545 5.93599Z" fill="currentColor"/>
<path d="M65.4432 1.51999C66.0592 1.51999 66.4192 1.95599 66.5232 2.82799C66.5232 3.63599 65.8912 5.19999 64.6272 7.51999V7.59199C64.9552 7.59199 65.6552 7.30399 66.7272 6.72799H66.7512C66.9112 6.72799 67.0352 6.84399 67.1232 7.07599C67.1232 7.48399 66.0232 7.98399 63.8232 8.57599C63.6952 8.57599 63.5872 8.45999 63.4992 8.22799C63.8112 7.51599 64.4192 6.31599 65.3232 4.62799C65.6272 3.81199 65.7792 3.25999 65.7792 2.97199V2.59999C65.7792 2.43999 65.6952 2.31599 65.5272 2.22799H65.3712C65.0592 2.22799 64.7592 2.60399 64.4712 3.35599L64.5072 3.49999C64.5072 3.65199 64.3952 3.77599 64.1712 3.87199C63.8752 3.81599 63.7272 3.66799 63.7272 3.42799C63.7272 2.97199 64.0752 2.41199 64.7712 1.74799C64.9712 1.59599 65.1952 1.51999 65.4432 1.51999Z" fill="currentColor"/>
<path d="M68.8917 1.09999C69.1397 0.683987 69.3877 0.475987 69.6357 0.475987C69.8917 0.475987 70.0677 0.623987 70.1637 0.919987L70.1397 1.07599V1.09999C71.1557 1.75599 71.6637 2.97999 71.6637 4.77199C71.6637 6.56399 71.1397 7.75599 70.0917 8.34799L69.6837 8.41999C68.8597 8.41999 68.2957 7.94399 67.9917 6.99199C67.8877 6.56799 67.8357 6.15599 67.8357 5.75599V5.59999C67.8357 4.76799 68.0357 3.61999 68.4357 2.15599C68.2437 2.15599 68.1197 2.01999 68.0637 1.74799C68.0637 1.59599 68.3397 1.37999 68.8917 1.09999ZM68.5557 5.52799V5.82799C68.5557 7.07599 68.9077 7.69999 69.6117 7.69999H69.6357C70.2917 7.69999 70.7197 6.91599 70.9197 5.34799L70.9557 4.62799C70.8997 3.03599 70.5277 2.08399 69.8397 1.77199L69.6117 1.74799H69.4197C69.2277 1.93999 68.9997 2.61599 68.7357 3.77599C68.6157 4.41599 68.5557 4.99999 68.5557 5.52799Z" fill="currentColor"/>
<path d="M75.5302 0.355988H75.6502C76.8502 0.355988 77.6862 1.15599 78.1582 2.75599L78.2302 3.57199V3.65599L78.1582 4.43599C78.2862 4.68399 78.3502 4.98399 78.3502 5.33599C78.3502 6.47999 77.6862 7.54399 76.3582 8.52799C75.8942 8.77599 75.4942 8.89999 75.1582 8.89999C73.7422 8.89999 72.8422 7.92399 72.4582 5.97199L72.4342 5.29999V5.10799C72.4342 3.27599 73.0342 1.82399 74.2342 0.751987C74.6982 0.487988 75.1302 0.355988 75.5302 0.355988ZM73.1302 5.03599V5.22799C73.1302 6.77199 73.6302 7.73199 74.6302 8.10799L75.1342 8.17999C76.1022 8.17999 76.9102 7.43199 77.5582 5.93599L77.6302 5.37199H77.6062C77.2942 5.49199 77.0702 5.55199 76.9342 5.55199C76.8062 5.55199 76.6142 5.45199 76.3582 5.25199H76.3342C75.9102 5.98799 75.5102 6.35599 75.1342 6.35599H75.0862C74.5742 6.35599 74.2742 5.98799 74.1862 5.25199C74.1862 4.37999 74.7022 3.55599 75.7342 2.77999C75.9502 2.65999 76.1742 2.59999 76.4062 2.59999H76.5142C76.8422 2.59999 77.0062 2.79999 77.0062 3.19999L76.8142 4.32799V4.39999C76.8622 4.70399 76.9262 4.85599 77.0062 4.85599H77.0782C77.2702 4.85599 77.4222 4.46399 77.5342 3.67999C77.5342 2.40799 77.0942 1.57199 76.2142 1.17199L75.8062 1.05199H75.3862C74.5942 1.05199 73.9342 1.80399 73.4062 3.30799C73.2222 3.83599 73.1302 4.41199 73.1302 5.03599ZM74.9782 4.80799L74.9062 5.10799V5.45599C74.9542 5.57599 75.0382 5.63599 75.1582 5.63599C75.7902 5.07599 76.1062 4.33999 76.1062 3.42799C75.7622 3.42799 75.3862 3.88799 74.9782 4.80799Z" fill="currentColor"/>
<path d="M81.6126 3.13999C81.8286 3.13999 81.9766 3.50399 82.0566 4.23199C81.9766 4.43199 81.8446 4.53199 81.6606 4.53199C81.5326 4.50799 81.4046 4.35999 81.2766 4.08799L81.0606 4.01599C80.6846 4.01599 80.3446 4.26399 80.0406 4.75999V4.86799C80.0406 4.98799 80.6046 5.18799 81.7326 5.46799C82.2046 5.74799 82.4406 6.08799 82.4406 6.48799C82.4406 7.14399 81.9126 7.70399 80.8566 8.16799L80.4126 8.23999C79.7406 8.16799 79.4046 7.83199 79.4046 7.23199V7.19599C79.4046 7.00399 79.5286 6.89199 79.7766 6.85999C79.9686 6.85999 80.0966 7.05999 80.1606 7.45999L80.2566 7.53199H80.4606C80.9166 7.53199 81.3406 7.21999 81.7326 6.59599V6.43999C81.7326 6.19999 81.2086 5.97599 80.1606 5.76799C79.6086 5.54399 79.3326 5.23199 79.3326 4.83199C79.3326 4.31199 79.7686 3.82399 80.6406 3.36799C81.0246 3.31999 81.3486 3.24399 81.6126 3.13999Z" fill="currentColor"/>
<path d="M83.5643 1.38799C83.7883 1.46799 83.9003 1.59199 83.9003 1.75999L84.0203 6.33199V7.80799C84.0203 8.07999 83.9043 8.21599 83.6723 8.21599H83.5163C83.3723 8.11999 83.3003 8.00799 83.3003 7.87999V6.48799L83.1923 1.73599C83.1923 1.53599 83.3163 1.41999 83.5643 1.38799Z" fill="currentColor"/>
<path d="M85.0762 3.79999C85.1322 3.59999 85.2602 3.49999 85.4602 3.49999C85.6602 3.49999 85.7922 3.69999 85.8562 4.09999H85.9042L86.4562 3.97999C86.7122 3.97999 86.9602 4.21999 87.2002 4.69999H87.2482C87.6002 4.14799 87.9602 3.87199 88.3282 3.87199C89.1122 4.01599 89.5042 4.52799 89.5042 5.40799L89.5282 5.82799L89.4202 8.25199V8.47999C89.4202 8.67999 89.2962 8.79599 89.0482 8.82799C88.8002 8.82799 88.6762 8.53599 88.6762 7.95199L88.8202 5.77999C88.8202 4.97999 88.6322 4.57999 88.2562 4.57999C88.0402 4.57999 87.7802 5.10399 87.4762 6.15199C87.3242 7.35199 87.2002 7.95199 87.1042 7.95199C86.9682 7.95199 86.9002 7.97999 86.9002 8.03599C86.6522 8.00399 86.5282 7.87599 86.5282 7.65199L86.6842 6.19999C86.6602 5.19999 86.5602 4.69999 86.3842 4.69999H86.3482C86.1482 4.85199 86.0482 5.15199 86.0482 5.59999V6.23599L86.0002 8.07199C85.9442 8.27199 85.8202 8.37199 85.6282 8.37199C85.4602 8.37199 85.3522 8.23199 85.3042 7.95199L85.2562 6.53599L85.3282 5.37199C85.2802 4.77199 85.1962 4.24799 85.0762 3.79999Z" fill="currentColor"/>
<path d="M92.4368 3.36799C92.7888 3.36799 92.9648 3.50799 92.9648 3.78799L92.8568 4.01599L92.7848 6.21199C92.7848 7.20399 92.9848 7.81999 93.3848 8.05999L93.4088 8.23999C93.3848 8.47199 93.2768 8.58799 93.0848 8.58799H93.0128C92.4128 8.17999 92.1128 7.55599 92.1128 6.71599H92.0288C91.7088 7.61199 91.3208 8.05999 90.8648 8.05999C90.4408 7.93999 90.2288 7.62399 90.2288 7.11199C90.2288 5.98399 90.6808 4.85999 91.5848 3.73999C91.8888 3.49199 92.1728 3.36799 92.4368 3.36799ZM90.9848 6.63199L90.9368 6.96799V7.19599H91.0568C91.6568 5.69999 91.9568 4.78799 91.9568 4.45999H91.9088C91.4448 4.97999 91.1368 5.70399 90.9848 6.63199Z" fill="currentColor"/>
<path d="M93.8407 1.74799C94.1447 1.81199 94.2967 1.94799 94.2967 2.15599C94.2167 2.37999 94.0887 2.49199 93.9127 2.49199C93.6167 2.43599 93.4687 2.28799 93.4687 2.04799C93.5487 1.84799 93.6727 1.74799 93.8407 1.74799ZM94.2967 3.42799C94.4247 3.42799 94.5327 3.54399 94.6207 3.77599L94.5127 4.62799V5.19199C94.5127 5.84799 94.6247 6.70799 94.8487 7.77199C94.7687 7.92399 94.6327 7.99999 94.4407 7.99999C94.1127 7.99999 93.8967 7.03999 93.7927 5.11999V4.69999C93.7927 3.85199 93.9607 3.42799 94.2967 3.42799Z" fill="currentColor"/>
<path d="M96.1503 1.38799C96.3743 1.46799 96.4863 1.59199 96.4863 1.75999L96.6063 6.33199V7.80799C96.6063 8.07999 96.4903 8.21599 96.2583 8.21599H96.1023C95.9583 8.11999 95.8863 8.00799 95.8863 7.87999V6.48799L95.7783 1.73599C95.7783 1.53599 95.9023 1.41999 96.1503 1.38799Z" fill="currentColor"/>
<path d="M99.8822 3.13999C100.098 3.13999 100.246 3.50399 100.326 4.23199C100.246 4.43199 100.114 4.53199 99.9302 4.53199C99.8022 4.50799 99.6742 4.35999 99.5462 4.08799L99.3302 4.01599C98.9542 4.01599 98.6142 4.26399 98.3102 4.75999V4.86799C98.3102 4.98799 98.8742 5.18799 100.002 5.46799C100.474 5.74799 100.71 6.08799 100.71 6.48799C100.71 7.14399 100.182 7.70399 99.1262 8.16799L98.6822 8.23999C98.0102 8.16799 97.6742 7.83199 97.6742 7.23199V7.19599C97.6742 7.00399 97.7982 6.89199 98.0462 6.85999C98.2382 6.85999 98.3662 7.05999 98.4302 7.45999L98.5262 7.53199H98.7302C99.1862 7.53199 99.6102 7.21999 100.002 6.59599V6.43999C100.002 6.19999 99.4782 5.97599 98.4302 5.76799C97.8782 5.54399 97.6022 5.23199 97.6022 4.83199C97.6022 4.31199 98.0382 3.82399 98.9102 3.36799C99.2942 3.31999 99.6182 3.24399 99.8822 3.13999Z" fill="currentColor"/>
<path d="M102.122 7.29199C102.29 7.29199 102.39 7.42799 102.422 7.69999C102.374 7.97999 102.234 8.11999 102.002 8.11999C101.842 8.11999 101.73 7.97999 101.666 7.69999C101.762 7.42799 101.914 7.29199 102.122 7.29199Z" fill="currentColor"/>
<path d="M104.554 3.93199L105.046 3.85999C105.246 3.85999 105.358 3.98399 105.382 4.23199C105.382 4.44799 105.122 4.58799 104.602 4.65199C104.274 4.90799 104.11 5.23599 104.11 5.63599V6.03199C104.27 6.91199 104.542 7.35199 104.926 7.35199H105.046C105.27 7.35199 105.606 7.13999 106.054 6.71599H106.126C106.286 6.71599 106.414 6.82799 106.51 7.05199C106.398 7.39599 106.038 7.70799 105.43 7.98799C105.318 8.03599 105.178 8.05999 105.01 8.05999C104.186 8.05999 103.65 7.41199 103.402 6.11599V5.85199C103.402 4.91599 103.786 4.27599 104.554 3.93199Z" fill="currentColor"/>
<path d="M109.035 3.47599C109.627 3.47599 110.075 3.91599 110.379 4.79599L110.427 5.04799C110.427 5.90399 110.027 6.77999 109.227 7.67599C108.907 7.97199 108.583 8.11999 108.255 8.11999C107.775 8.11999 107.435 7.84399 107.235 7.29199C107.163 7.03599 107.127 6.81199 107.127 6.61999V6.47599C107.127 5.21199 107.587 4.25199 108.507 3.59599C108.667 3.51599 108.843 3.47599 109.035 3.47599ZM107.835 6.59599C107.835 7.13999 107.975 7.41199 108.255 7.41199C108.839 7.41199 109.323 6.66399 109.707 5.16799V4.93999C109.571 4.44399 109.319 4.19599 108.951 4.19599C108.807 4.19599 108.735 4.29599 108.735 4.49599C108.735 4.63199 108.575 4.73999 108.255 4.81999C107.975 5.29199 107.835 5.88399 107.835 6.59599Z" fill="currentColor"/>
<path d="M111.15 3.79999C111.206 3.59999 111.334 3.49999 111.534 3.49999C111.734 3.49999 111.866 3.69999 111.93 4.09999H111.978L112.53 3.97999C112.786 3.97999 113.034 4.21999 113.274 4.69999H113.322C113.674 4.14799 114.034 3.87199 114.402 3.87199C115.186 4.01599 115.578 4.52799 115.578 5.40799L115.602 5.82799L115.494 8.25199V8.47999C115.494 8.67999 115.37 8.79599 115.122 8.82799C114.874 8.82799 114.75 8.53599 114.75 7.95199L114.894 5.77999C114.894 4.97999 114.706 4.57999 114.33 4.57999C114.114 4.57999 113.854 5.10399 113.55 6.15199C113.398 7.35199 113.274 7.95199 113.178 7.95199C113.042 7.95199 112.974 7.97999 112.974 8.03599C112.726 8.00399 112.602 7.87599 112.602 7.65199L112.758 6.19999C112.734 5.19999 112.634 4.69999 112.458 4.69999H112.422C112.222 4.85199 112.122 5.15199 112.122 5.59999V6.23599L112.074 8.07199C112.018 8.27199 111.894 8.37199 111.702 8.37199C111.534 8.37199 111.426 8.23199 111.378 7.95199L111.33 6.53599L111.402 5.37199C111.354 4.77199 111.27 4.24799 111.15 3.79999Z" fill="currentColor"/>
</svg>
