<svg width="24" height="24" viewBox="0 0 24 24" fill="none" xmlns="http://www.w3.org/2000/svg">
<path d="M22.8123 4.77514C22.7522 4.4032 22.8781 4.03693 22.8607 3.66489C22.8666 3.40702 22.8718 3.10186 22.6708 2.90832C22.5592 2.85052 22.4215 2.88212 22.3004 2.88647C22.0706 2.92771 21.8351 2.95703 21.6207 3.05324C21.4163 3.14414 21.1967 3.21462 21.0272 3.36531C20.6706 3.64322 20.3395 3.9551 20.0562 4.30624C19.9588 4.42628 19.9012 4.57006 19.8498 4.71328C19.7995 4.85451 19.7324 4.9894 19.6881 5.13271C19.6032 5.47448 19.5359 5.82344 19.5406 6.17741C19.5271 6.43679 19.548 6.70062 19.6358 6.94704C19.6852 7.08826 19.7287 7.24425 19.685 7.39258C19.6044 7.65517 19.4973 7.90887 19.3747 8.15501C19.2769 8.34817 19.2325 8.56006 19.1745 8.76694C19.1106 8.59185 19.0803 8.40644 19.0244 8.22889C18.8657 7.70625 19.0404 7.14162 18.8524 6.62475C18.7431 6.3457 18.654 6.02285 18.4761 5.77321C18.3638 5.61581 18.2782 5.49085 18.1402 5.36475C18.0159 5.25133 17.905 5.12458 17.777 5.01589C17.7195 4.96537 17.6453 4.93236 17.5983 4.87163C17.4513 4.38948 17.3018 3.90752 17.1321 3.43237C17.0691 3.24858 16.9646 3.08389 16.8775 2.91106C16.7206 2.64601 16.5412 2.36005 16.2878 2.17199C16.1682 2.09424 16.011 2.10899 15.8807 2.14882C15.7148 2.20803 15.5194 2.28513 15.3858 2.40072C15.0867 2.63721 14.8198 2.8737 14.5393 3.13185C14.2963 3.01237 14.056 2.88335 13.7967 2.80171C13.4921 2.70305 13.1953 2.57525 12.8782 2.51972C12.4226 2.39448 11.9459 2.34482 11.4757 2.34236C11.2141 2.3416 10.961 2.2524 10.6985 2.26262C10.403 2.27312 10.0946 2.25581 9.81941 2.38256C9.52079 2.47801 9.30849 2.71818 9.0462 2.8754C8.83779 3.00878 8.59304 3.10971 8.3925 3.25728C8.27393 3.34771 8.1452 3.42282 8.01581 3.49679C7.76803 3.66545 7.5213 3.84026 7.31355 4.0584C7.00743 4.33537 6.73347 4.64489 6.45325 4.94768C6.35639 5.05552 6.2917 5.18644 6.21353 5.30771C5.96395 5.26051 5.70944 5.25824 5.45891 5.2187C5.08724 5.18493 4.69451 5.07491 4.33537 5.23203C4.13616 5.29541 3.9711 5.46389 3.93979 5.67247C3.9102 5.94272 3.93202 6.21553 3.95886 6.48522C4.02147 6.76362 4.07971 7.04579 4.18994 7.31037C4.24401 7.44489 4.28481 7.58432 4.32854 7.72252C4.40509 7.98786 4.58106 8.20675 4.69413 8.4562C4.86166 8.70082 4.9865 8.96966 5.10375 9.24067C5.1323 9.31351 5.10137 9.39108 5.09502 9.46495C4.77666 9.33082 4.43725 9.20681 4.0856 9.22922C3.92224 9.23216 3.7606 9.25618 3.59791 9.2682C3.41824 9.28627 3.26087 9.16585 3.08196 9.17332C2.87962 9.17824 2.67453 9.18391 2.47712 9.23131C2.00794 9.41018 1.61654 9.75072 1.32076 10.1489C1.22466 10.3051 1.15276 10.4752 1.06994 10.6391C0.84664 11.1194 0.863715 11.6661 0.935145 12.1787C0.982007 12.3976 1.0634 12.6068 1.13473 12.8182C1.23292 13.0756 1.41761 13.2864 1.58068 13.5048C1.76547 13.7446 2.04892 13.8717 2.31292 14.0044C2.485 14.0916 2.70137 14.0799 2.85002 14.2135C3.12389 14.4705 3.34217 14.7783 3.60522 15.0457C3.69809 15.1379 3.77663 15.2432 3.84787 15.3523C3.95232 15.5107 4.08379 15.6483 4.19658 15.8003C4.11965 15.9899 4.0468 16.1815 3.99927 16.3814C3.88288 16.7805 3.87263 17.1994 3.86315 17.6119C3.88838 17.8682 3.9876 18.1095 4.07526 18.3493C4.22163 18.7418 4.47197 19.0841 4.73559 19.4059C4.8831 19.556 5.07424 19.6525 5.2468 19.7705C5.46081 19.9145 5.71987 19.9556 5.96376 20.0254C6.20329 20.0944 6.45439 20.1084 6.7016 20.1359C7.01606 20.1684 7.31668 20.0536 7.61407 19.9696C7.85217 20.259 8.07187 20.5736 8.387 20.7872C8.6788 21.0727 9.08708 21.2228 9.49385 21.2255C9.77938 21.2035 10.0638 21.1403 10.3272 21.027C10.5039 20.9194 10.7021 20.8188 10.8089 20.6335C10.9077 20.472 10.9621 20.2886 11.0291 20.113C11.111 19.7362 11.0558 19.3262 10.8478 18.9963C10.6071 18.63 10.3008 18.3118 10.0172 17.9796C9.97404 17.9403 10.0007 17.8852 10.0157 17.8403C10.1907 17.3979 10.2516 16.9189 10.1929 16.447C10.1298 16.0983 10.0657 15.742 9.89521 15.427C9.80129 15.2328 9.67067 15.0601 9.56405 14.8738C9.92253 14.9336 10.2765 15.0486 10.6447 15.0311C11.1216 15.0415 11.5485 15.0011 12.0256 15.0082C12.2885 15.0048 12.5487 14.9642 12.8076 14.9243C13.3617 14.8658 13.9338 14.6852 14.4712 14.5513C14.8292 14.4599 14.9914 14.3932 15.4038 14.2357C15.667 14.1353 15.9626 14.008 16.1941 13.8775C16.4754 13.7273 16.7881 13.6021 17.053 13.4568C16.9108 13.6457 16.8196 13.8213 16.757 14.0526C16.5842 14.4148 16.6102 14.8221 16.595 15.2119C16.5748 15.4838 16.7178 15.7263 16.7948 15.9785C16.8791 16.2455 17.0393 16.4798 17.1964 16.709C17.3873 16.9168 17.5714 17.1372 17.8099 17.2944C18.0181 17.4457 18.2834 17.468 18.5188 17.5592C18.858 17.6798 19.2147 17.7738 19.5783 17.7422C19.8823 17.7574 20.1692 17.649 20.4579 17.5731C20.715 17.4761 20.9751 17.3519 21.1556 17.139C21.2669 17.0128 21.3983 16.9062 21.5098 16.78C21.656 16.6121 21.7336 16.4007 21.8517 16.2147C21.9308 16.0922 21.9783 15.9531 22.0389 15.8215C22.1325 15.6238 22.1283 15.4014 22.1667 15.1908C22.2867 14.574 22.1526 13.9195 21.8239 13.3854C21.7331 13.2425 21.6069 13.1277 21.4928 13.004C21.4151 12.9185 21.312 12.8553 21.2492 12.7577C21.2887 12.5443 21.3556 12.335 21.382 12.1184C21.4143 11.8275 21.4883 11.5426 21.504 11.2494C21.5579 10.9436 21.5599 10.6278 21.6573 10.3308C21.7237 10.106 21.7319 9.87086 21.7555 9.63929C21.7881 9.20756 21.8523 8.77735 21.8491 8.34325C21.8391 8.19654 22.0061 8.13931 22.0886 8.04424C22.2493 7.86337 22.3668 7.64893 22.4914 7.4429C22.5982 7.25333 22.7191 7.06689 22.7768 6.85499C22.8519 6.56043 22.945 6.26558 22.9362 5.95805C22.9588 5.55905 22.8737 5.16658 22.8123 4.77514ZM6.65815 13.9003C6.41179 13.6022 6.17322 13.298 5.94868 12.9834C5.93322 12.9523 5.89603 12.9187 5.9151 12.8819C5.97714 12.7313 6.02163 12.5748 6.07883 12.4226C6.2068 12.6087 6.3636 12.7808 6.56585 12.8883C6.79447 12.9964 6.92879 13.2187 7.09148 13.4003C7.20816 13.5387 7.33366 13.6697 7.46201 13.7979C7.19137 13.8014 6.9249 13.8552 6.65815 13.9003Z" fill="white"/>
<path d="M15.7361 2.74903C15.81 2.6918 15.9099 2.66314 16.0001 2.6988C16.0841 2.73664 16.1086 2.83142 16.1493 2.90568C16.2895 3.17092 16.3864 3.4565 16.5299 3.72052C16.7266 4.20077 16.8097 4.71575 16.948 5.2136C16.9589 5.28 17.0256 5.30687 17.0747 5.34187C17.2374 5.44412 17.3825 5.57221 17.5086 5.71665C17.8951 6.08444 18.1766 6.57179 18.2526 7.1018C18.3336 7.43657 18.2294 7.78023 18.2784 8.11633C18.3658 8.34704 18.3903 8.59346 18.4593 8.8291C18.5183 9.19821 18.6171 9.56627 18.5917 9.94333C18.5749 10.182 18.5643 10.4242 18.506 10.6576C18.3554 11.0671 18.1803 11.4792 17.8819 11.8057C17.5653 12.1866 17.1434 12.4572 16.7444 12.7435C16.6437 12.8203 16.524 12.8675 16.4172 12.9351C16.2049 13.0692 15.9989 13.2206 15.7604 13.3077C15.4555 13.426 15.1594 13.5675 14.8477 13.669C14.5532 13.7567 14.2606 13.8524 13.9725 13.9592C13.4785 14.0961 12.9788 14.2392 12.4622 14.2493C12.2021 14.2818 11.9441 14.3361 11.6814 14.346C11.0562 14.357 10.4215 14.3792 9.8086 14.2352C9.57003 14.1608 9.33401 14.0791 9.09325 14.0125C8.65907 13.8292 8.245 13.5853 7.90881 13.253C7.68649 13.0657 7.47636 12.8645 7.27969 12.6505C7.17923 12.5484 7.13521 12.4098 7.06824 12.2866C6.98656 12.3039 6.89986 12.3445 6.81942 12.2992C6.72048 12.2545 6.60105 12.2243 6.54062 12.1264C6.33733 11.8261 6.18337 11.4978 6.04373 11.1648C5.93645 10.9511 5.83409 10.7333 5.77471 10.5007C5.68876 10.1437 5.59466 9.781 5.61838 9.41085C5.63241 9.31153 5.66353 9.21523 5.66988 9.11468C5.55985 8.85104 5.31102 8.62562 5.19747 8.36331C4.95482 7.83576 4.72516 7.30102 4.55128 6.74707C4.47453 6.48589 4.40405 6.22567 4.39798 5.95096C4.42748 5.84767 4.45917 5.71117 4.56399 5.65025C4.67479 5.61402 4.7945 5.64362 4.90691 5.65961C5.16835 5.71646 5.43662 5.7315 5.69929 5.78088C5.94726 5.82544 6.18109 5.92287 6.42565 5.98067C6.51833 5.83622 6.58483 5.6756 6.69477 5.54203C6.85215 5.32361 7.0246 5.11683 7.19241 4.90617C7.33992 4.71773 7.52301 4.60081 7.69281 4.43452C7.78226 4.35099 7.88377 4.24731 7.98441 4.17542C8.16143 4.05046 8.31358 3.88965 8.51355 3.79894C8.67387 3.72761 8.81037 3.61344 8.97202 3.54485C9.2012 3.45471 9.3748 3.27422 9.58065 3.1451C9.7626 2.97956 9.99283 2.86907 10.2341 2.82007C10.3964 2.8108 10.5615 2.79954 10.7223 2.82206C10.9339 2.85148 11.0713 2.91523 11.247 2.9561C11.3753 2.94635 11.5008 2.91769 11.6327 2.91864C11.8767 2.92034 12.0813 2.93198 12.3004 2.98164C12.5663 3.0225 12.8192 3.11644 13.0798 3.17792C13.3412 3.23298 13.5933 3.3428 13.8314 3.467C13.9811 3.54485 14.129 3.60852 14.2699 3.70254C14.3729 3.76857 14.4637 3.85172 14.5705 3.91321C14.6742 3.77075 14.8135 3.65998 14.9224 3.52177C15.0179 3.40154 15.1493 3.3166 15.2469 3.19835C15.3903 3.02912 15.5592 2.88307 15.7361 2.74903Z" fill="black"/>
<path d="M15.666 3.46274C15.725 3.38697 15.7974 3.32322 15.8712 3.2623C15.9334 3.38329 15.9962 3.50569 16.0345 3.63699C16.0919 3.85465 16.1699 4.06626 16.2298 4.28326C16.3287 4.55806 16.383 4.84543 16.4451 5.13016C16.3093 5.10018 16.1681 5.09601 16.0343 5.05789C15.889 4.93312 15.7611 4.78991 15.6378 4.64404C15.46 4.47538 15.2753 4.31173 15.0618 4.1881C15.2509 3.93638 15.4714 3.71001 15.666 3.46274Z" fill="#F59C32"/>
<path d="M10.0644 3.47909C10.2156 3.39765 10.3898 3.374 10.5578 3.35234C10.6823 3.33531 10.8028 3.3827 10.9258 3.39717C11.2428 3.4335 11.5496 3.5489 11.8168 3.7204C12.1119 3.94526 12.4383 4.12915 12.7111 4.38247C12.9364 4.59635 13.1686 4.80465 13.3671 5.04454C13.0836 5.047 12.8074 5.11198 12.5297 5.16231C12.3834 5.19107 12.2396 5.24508 12.0892 5.24413C11.9446 5.0784 11.7974 4.91542 11.6715 4.73503C11.3824 4.46061 11.0962 4.17351 10.7451 3.97534C10.5578 3.87071 10.3463 3.81708 10.1342 3.794C10.0721 3.78501 10.0204 3.81557 9.97925 3.85842C10.2119 3.95661 10.4605 4.02859 10.6614 4.18751C10.868 4.35759 11.0781 4.5307 11.2323 4.75149C11.3849 4.9647 11.5635 5.15928 11.6991 5.38461C11.0258 5.68551 10.4611 6.17107 9.93144 6.67336C9.68689 6.89481 9.46358 7.1434 9.28913 7.42378C9.15804 7.60767 9.02419 7.79062 8.92022 7.99173C8.81397 8.20712 8.66542 8.40066 8.57739 8.62589C8.494 8.83825 8.33786 9.00957 8.21293 9.19847C8.14027 9.31615 8.03004 9.40317 7.93821 9.50534C7.67819 9.78931 7.41761 10.0803 7.23775 10.4228C7.03238 10.7685 6.88458 11.1448 6.77321 11.5304C6.6406 11.1746 6.46605 10.837 6.3175 10.4881C6.22624 10.2368 6.21694 9.96639 6.19958 9.70257C6.3174 9.77011 6.42725 9.85496 6.55522 9.90282C6.68537 9.92921 6.83819 9.9348 6.94216 9.83774C7.10352 9.7003 7.18396 9.49682 7.30823 9.32948C7.4713 9.11807 7.59339 8.88035 7.73378 8.65465C7.89467 8.39555 8.06305 8.14185 8.22583 7.88408C8.41508 7.6422 8.63876 7.42359 8.79282 7.15627C8.78904 7.14208 8.78493 7.12798 8.78049 7.11398C8.64512 7.00435 8.48376 6.9317 8.33416 6.84373C8.08731 6.69957 7.83833 6.55905 7.58732 6.42221C7.39693 6.3349 7.19876 6.26528 6.99984 6.20077C7.08424 6.06111 7.16699 5.92047 7.24809 5.77888C7.6374 5.166 8.19766 4.67165 8.82811 4.31257C9.06118 4.16509 9.29634 4.02074 9.53758 3.88736C9.71649 3.75616 9.8806 3.60424 10.0644 3.47909ZM12.1137 3.43161C12.3873 3.41732 12.6425 3.53017 12.8944 3.61994C13.2265 3.72693 13.5548 3.85208 13.8637 4.01526C14.1569 4.19858 14.4618 4.36403 14.75 4.55454C14.908 4.68763 15.0953 4.78242 15.2433 4.92781C14.7755 4.95335 14.3054 4.94077 13.8393 4.98844C13.7108 4.82177 13.5541 4.68139 13.4044 4.53467C13.1832 4.28078 12.9381 4.04609 12.6664 3.8464C12.4983 3.6873 12.2894 3.58107 12.1137 3.43161Z" fill="#FFCF38"/>
<path d="M21.729 3.55118C21.8727 3.47976 22.0351 3.47711 22.1921 3.4809C22.2139 3.52034 22.2584 3.55336 22.2562 3.60198C22.2448 3.82815 22.2075 4.05225 22.1825 4.27691C22.1959 4.74184 22.3146 5.19807 22.3155 5.66414C22.3226 6.05548 22.3224 6.50121 22.0425 6.81006C21.9655 6.89131 21.9622 7.00785 21.9186 7.10557C21.8133 7.31623 21.6568 7.4954 21.5416 7.70019C21.4751 7.82241 21.3477 7.89354 21.2683 8.00564C21.2498 8.20258 21.2703 8.4018 21.249 8.59903C21.2135 8.83429 21.2233 9.0739 21.1805 9.3083C21.1475 9.60504 21.09 9.90065 21.1015 10.1999C21.0452 10.2327 20.9872 10.2629 20.9285 10.2906C20.8851 10.6082 20.8746 10.9293 20.8424 11.2481C20.7527 11.8381 20.6191 12.42 20.4973 13.0036C20.7389 13.1169 20.9579 13.2855 21.1091 13.5063C21.1565 13.5761 21.2125 13.6395 21.2629 13.7069C21.3574 13.8333 21.3932 13.9892 21.4464 14.1346C21.5762 14.5281 21.5603 14.951 21.4932 15.3542C21.4341 15.6114 21.301 15.8431 21.1925 16.0815C21.0576 16.3243 20.8605 16.5358 20.6164 16.673C20.361 16.8194 20.1068 16.9917 19.8074 17.0304C19.5957 17.1067 19.3689 17.0614 19.1495 17.0626C18.8487 17.0245 18.5474 16.9582 18.2712 16.8313C18.1413 16.7533 17.9866 16.7167 17.8739 16.6122C17.7492 16.4991 17.6122 16.3949 17.5237 16.2495C17.3813 16.0064 17.2722 15.741 17.227 15.4622C17.1806 15.1513 17.1777 14.8354 17.2185 14.5237C17.2985 14.0993 17.4695 13.6743 17.7931 13.3745C18.0034 13.1735 18.2017 12.9354 18.482 12.8308C18.6813 12.7777 18.882 12.7274 19.0847 12.687C19.0712 12.3656 19.0951 12.0469 19.1072 11.7263C19.1201 11.4495 19.174 11.1772 19.2298 10.9064C19.2684 10.5883 19.4003 10.2504 19.4727 9.93934C19.5053 9.84673 19.4531 9.7878 19.4587 9.69425C19.4797 9.43515 19.5788 9.19185 19.6488 8.94383C19.7902 8.44881 19.9745 7.96222 20.2398 7.51829C20.1008 7.16384 20.1001 6.77818 20.0747 6.40425C20.0797 6.28194 20.1051 6.15442 20.0417 6.04129C19.9927 5.80385 20.0684 5.56302 20.144 5.33864C20.1953 5.19854 20.2484 5.05873 20.314 4.92488C20.3743 4.7985 20.4781 4.70145 20.5689 4.59673C20.7537 4.35268 20.9627 4.12773 21.1834 3.91565C21.3411 3.76222 21.5338 3.6506 21.729 3.55118Z" fill="black"/>
<path d="M20.8322 4.98986C21.1023 4.62757 21.4193 4.30273 21.7698 4.0163C21.7494 4.26272 21.7126 4.51046 21.7513 4.75707C21.7963 5.04416 21.791 5.33476 21.8215 5.62289C21.8473 5.86288 21.8468 6.10892 21.7746 6.34153C21.6343 6.23217 21.4704 6.14855 21.3572 6.00865C21.2769 5.91481 21.1655 5.81265 21.0316 5.83563C20.8471 5.87839 20.687 5.98727 20.504 6.03419C20.4846 5.88615 20.5078 5.73499 20.5663 5.59763C20.6528 5.39454 20.7035 5.17338 20.8322 4.98986Z" fill="#F31E3E"/>
<path d="M14.9394 5.47317C15.3089 5.4393 15.6753 5.51583 16.0433 5.53475C16.2243 5.5427 16.3851 5.59661 16.5662 5.65801C16.862 5.75837 17.1161 5.94425 17.3092 6.17932C17.5793 6.56687 17.8085 7.00711 17.8246 7.48775C17.7008 7.40044 17.5782 7.30802 17.4368 7.25041C17.2852 7.18703 17.147 7.09471 16.9899 7.04391C16.591 6.91933 16.1722 6.87657 15.7557 6.8621C15.4708 6.85671 15.1838 6.81755 14.9007 6.86324C14.6861 6.8971 14.4674 6.87326 14.2543 6.9164C13.9822 6.93759 13.7163 6.99851 13.4458 7.02934C12.8849 7.14011 12.3432 7.32448 11.7875 7.45559C11.23 7.59549 10.713 7.85251 10.1751 8.04557C9.94302 8.16268 9.69287 8.24526 9.4726 8.38413C9.3878 8.43616 9.29379 8.46983 9.20139 8.50559C9.34634 8.26182 9.48332 8.01284 9.65151 7.78317C9.90289 7.39628 10.2579 7.09528 10.5719 6.76107C10.6964 6.62552 10.8421 6.50983 10.9954 6.4071C11.2937 6.22302 11.5977 6.0431 11.9253 5.91407C12.2134 5.79914 12.5236 5.76168 12.8267 5.70417C13.2177 5.64703 13.6047 5.55726 14.001 5.54099C14.3131 5.50694 14.6265 5.49824 14.9394 5.47317Z" fill="#FFCF38"/>
<path d="M4.94865 6.27154C5.1396 6.21422 5.30096 6.3563 5.48689 6.36661C5.75459 6.39518 6.00664 6.49658 6.27216 6.53518C6.72351 6.60111 7.10258 6.86862 7.50906 7.05365C7.72031 7.13566 7.91962 7.24729 8.1397 7.30612C7.94466 7.53694 7.76224 7.77758 7.58476 8.02202C7.45888 8.19531 7.35244 8.39046 7.24686 8.58533C7.16528 8.73535 7.10324 8.871 7.01018 9.00135C6.88999 9.16094 6.79323 9.33575 6.67921 9.49911C6.49726 9.35873 6.37603 9.16396 6.2362 8.98679C5.84082 8.56934 5.69113 8.00168 5.4184 7.50922C5.24756 7.21881 5.20297 6.87752 5.0584 6.57538C5.01154 6.47785 4.98232 6.37371 4.94865 6.27154Z" fill="#F59C32"/>
<path d="M20.5326 6.45694C20.7025 6.43395 20.8624 6.37057 21.0172 6.29944C21.1819 6.46195 21.3811 6.58209 21.5553 6.73278C21.4133 7.06168 21.2502 7.3904 21.0131 7.66302C20.9175 7.6316 20.8218 7.6007 20.7259 7.57032C20.6069 7.21071 20.5417 6.83553 20.5326 6.45694Z" fill="#673927"/>
<path d="M13.0463 7.59029C13.6098 7.46627 14.1826 7.38199 14.7558 7.31766C15.0561 7.31568 15.3564 7.26185 15.6561 7.30139C16.0559 7.33072 16.4626 7.34983 16.8469 7.47346C17.0467 7.5551 17.2432 7.65073 17.4114 7.78657C17.5492 7.89573 17.6968 8.00745 17.7725 8.17081C17.906 8.46226 17.9375 8.78454 18.0232 9.09027C18.1055 9.37462 18.1527 9.63987 18.1518 9.93415C17.9627 9.7794 17.77 9.61745 17.5337 9.53856C17.3799 9.47906 17.2127 9.47319 17.0504 9.45768C16.9437 9.45399 16.8076 9.46345 16.7492 9.56741C16.7224 9.63968 16.7884 9.70542 16.8554 9.72018C17.03 9.76889 17.2119 9.7898 17.3846 9.84523C17.5884 9.91381 17.7456 10.0647 17.9079 10.1976C17.9917 10.266 18.0544 10.3552 18.1193 10.44C18.0799 10.5621 18.0075 10.7165 17.946 10.8297C17.7276 10.6518 17.5268 10.4497 17.2554 10.3601C17.0471 10.2748 16.7932 10.2036 16.5847 10.3263C16.4852 10.3813 16.502 10.544 16.6136 10.5732C16.742 10.5974 16.8768 10.5929 17.0001 10.6425C17.2183 10.7301 17.4293 10.8429 17.5726 11.0418C17.6072 11.0969 17.6717 11.1644 17.6308 11.2323C17.5314 11.3996 17.3789 11.5258 17.2469 11.6662C17.0744 11.8441 16.8561 11.9655 16.6662 12.1226C16.4836 12.2747 16.2627 12.3677 16.0595 12.4887C15.908 12.5697 15.7616 12.6626 15.6005 12.7236C15.7599 12.5095 15.918 12.2843 15.9817 12.0216C16.0534 11.7291 16.1041 11.4108 15.996 11.1206C15.9043 10.8736 15.7548 10.6326 15.5214 10.4964C15.3196 10.3775 15.1138 10.2576 14.8858 10.1962C14.6591 10.1354 14.443 10.0442 14.2169 9.98258C14.1319 9.95544 14.035 9.93916 13.9749 9.86784C13.6583 9.49589 13.6068 8.99417 13.4007 8.56641C13.2565 8.25056 13.1791 7.91077 13.0463 7.59029Z" fill="#F59C32"/>
<path d="M12.4588 7.76253C12.6479 7.68373 12.846 7.63038 13.0463 7.59027C13.179 7.91076 13.2565 8.25054 13.4008 8.56668C13.6069 8.99434 13.6584 9.49616 13.975 9.86811C14.0351 9.93943 14.1319 9.9557 14.217 9.98285C14.4431 10.0443 14.6592 10.1356 14.8859 10.1964C15.1139 10.2577 15.3197 10.3778 15.5215 10.4967C15.7549 10.6328 15.9044 10.8737 15.996 11.1208C16.1042 11.411 16.0534 11.7294 15.9818 12.0218C15.9181 12.2845 15.76 12.5098 15.6006 12.7238C15.4862 12.8288 15.335 12.8823 15.2003 12.9559C14.9666 13.0839 14.7256 13.1024 14.4868 13.218C14.2675 13.2953 14.0171 13.3859 13.7844 13.4146C13.5747 13.443 13.3694 13.5039 13.1581 13.518C12.9461 13.4689 12.7316 13.4041 12.5603 13.2651C12.1916 12.9639 11.876 12.5762 11.7374 12.1162C11.6907 11.879 11.6941 11.6348 11.6904 11.3942C11.7313 11.0844 11.9213 10.801 12.1835 10.6306C12.3516 10.5221 12.526 10.4216 12.7131 10.3488C12.8375 10.2876 12.9823 10.2393 13.0687 10.1254C13.0381 9.87558 13.0434 9.6198 12.976 9.37489C12.9406 9.23291 12.927 9.08628 12.8828 8.94647C12.7511 8.54861 12.6572 8.13542 12.4588 7.76253Z" fill="white"/>
<path d="M11.307 8.10923C11.746 7.96412 12.0659 7.87435 12.4588 7.76254C12.6572 8.13534 12.7511 8.54862 12.8829 8.94639C12.9272 9.0863 12.9406 9.23283 12.9761 9.37481C13.0435 9.61972 13.0381 9.8755 13.0688 10.1253C12.9824 10.2392 12.8376 10.2876 12.7132 10.3488C12.5261 10.4216 12.3517 10.5221 12.1836 10.6306C11.9213 10.801 11.7313 11.0843 11.6905 11.3941C11.6942 11.6347 11.6908 11.8789 11.7375 12.1162C11.8761 12.576 12.1917 12.9638 12.5603 13.265C12.7317 13.404 12.9461 13.4688 13.1582 13.518C12.923 13.5953 12.6776 13.6373 12.4301 13.6426C11.8252 13.6873 11.1757 13.8382 10.5908 13.7324C10.2842 13.677 9.99016 13.6277 9.68642 13.5576C9.63894 13.5469 9.59629 13.5209 9.56499 13.4837C9.54934 13.2994 9.57429 13.1118 9.62428 12.9344C9.74495 12.6094 9.97053 12.3378 10.2086 12.0906C10.3118 11.9862 10.4917 11.9402 10.5245 11.7809C10.5018 11.6964 10.4063 11.6706 10.3296 11.6886C10.113 11.7307 9.92604 11.9009 9.77303 12.045C9.55608 12.248 9.37594 12.4909 9.25508 12.7622C9.1735 12.9477 9.15747 13.1524 9.13015 13.351C8.91984 13.265 8.7692 13.1286 8.57511 13.0127C8.6825 12.5689 8.88009 12.1333 9.22112 11.8182C9.33818 11.6747 9.48759 11.5633 9.61764 11.4331C9.69714 11.3371 9.57277 11.2182 9.4726 11.2202C9.33126 11.2361 9.21856 11.3005 9.11488 11.3884C8.90485 11.591 8.68989 11.7958 8.5458 12.0519C8.40341 12.272 8.33464 12.5259 8.24585 12.7695C7.99503 12.589 7.77951 12.3972 7.60411 12.1441C7.48136 11.9771 7.35481 11.8071 7.28395 11.6106C7.33853 11.3897 7.40564 11.1721 7.48496 10.9589C7.65277 10.6536 7.82959 10.3465 8.07481 10.0944C8.25429 9.91712 8.41005 9.71526 8.61287 9.56268C8.78893 9.40177 8.9963 9.27984 9.17046 9.11666C9.31873 8.98631 9.50504 8.91319 9.66754 8.80346C10.0308 8.55846 10.419 8.44523 10.8021 8.28433C10.9645 8.22729 11.1443 8.16693 11.307 8.10923Z" fill="#F59C32"/>
<path d="M20.4139 7.96622C20.5757 7.96678 20.7371 7.98731 20.8966 8.01474C20.9415 8.24026 20.863 8.44307 20.8441 8.66518C20.8228 8.82258 20.8141 8.99427 20.7836 9.15054C20.7552 9.38164 20.707 9.61169 20.7057 9.84477C20.6129 9.84884 20.517 9.87495 20.4262 9.82916C20.2806 9.75547 20.147 9.66003 19.9935 9.60346C20.0541 9.12358 20.172 8.65364 20.3211 8.19391C20.3493 8.11785 20.3564 8.02666 20.4139 7.96622Z" fill="#FFCF38"/>
<path d="M14.2075 8.4773C14.3719 8.38829 14.5822 8.47342 14.6762 8.62401C14.7365 8.73261 14.7741 8.85464 14.7928 8.97695C14.7901 9.1335 14.7594 9.29583 14.6825 9.4345C14.6167 9.55965 14.4575 9.61783 14.3284 9.55085C14.1588 9.46203 13.9808 9.31238 13.9721 9.10692C13.9654 8.97373 13.942 8.83553 13.9841 8.70546C14.0277 8.60604 14.1096 8.52422 14.2075 8.4773ZM11.6016 8.9847C11.7739 8.93542 11.9411 9.03711 12.0448 9.16737C12.1459 9.40196 12.1879 9.67846 12.0889 9.92034C11.9645 10.1145 11.6417 10.2001 11.4603 10.0365C11.3037 9.86245 11.2847 9.61319 11.3043 9.3908C11.3103 9.21239 11.4421 9.05414 11.6016 8.9847ZM2.27696 9.87891C2.45767 9.7391 2.67263 9.61281 2.9095 9.62104C3.00948 9.68215 3.09277 9.78441 3.0978 9.90511C3.12986 10.2019 3.15111 10.4995 3.15064 10.7981C3.18346 11.0912 3.16933 11.3866 3.19589 11.6803C3.37518 11.6848 3.55475 11.6911 3.73261 11.6631C3.74039 11.2456 3.73091 10.8306 3.72446 10.4122C3.72133 10.2293 3.66707 9.9736 3.76458 9.77845C4.01084 9.7022 4.27731 9.75783 4.50868 9.85668C4.86469 10.0599 5.12243 10.4014 5.28104 10.7725C5.34526 10.9755 5.43519 11.171 5.48025 11.3804C5.51715 11.5837 5.59029 11.7898 5.53679 11.9976C5.51231 12.2367 5.39545 12.4487 5.30552 12.667C5.26748 12.7495 5.20895 12.8198 5.15526 12.8921C5.32098 13.1642 5.48689 13.4382 5.68714 13.6873C5.92933 13.9517 6.12958 14.2496 6.36228 14.5219C6.5316 14.477 6.70321 14.4401 6.87235 14.3938C7.09594 14.3511 7.3255 14.3684 7.55213 14.3659C7.7648 14.3614 7.95102 14.477 8.14843 14.5373C8.45084 14.6622 8.72623 14.863 8.93293 15.1154C9.11431 15.3659 9.29369 15.6258 9.38798 15.9231C9.4154 16.0127 9.46368 16.0953 9.48057 16.1885C9.52013 16.4922 9.59952 16.7972 9.55693 17.1056C9.53843 17.4576 9.39605 17.7867 9.25034 18.1031C9.33448 18.1973 9.42204 18.2901 9.52715 18.3615C9.7126 18.4874 9.8493 18.6666 9.99965 18.8291C10.139 18.9829 10.2555 19.1352 10.3405 19.3274C10.3996 19.4615 10.4137 19.6111 10.4359 19.7522C10.465 19.9439 10.4068 20.221 10.2564 20.3503C10.1471 20.4468 10.0584 20.5347 9.9156 20.5954C9.71772 20.6789 9.45856 20.7169 9.22454 20.657C9.06052 20.6016 8.8965 20.5419 8.74596 20.4551C8.49268 20.2932 8.28986 20.0655 8.11029 19.8275C8.03782 19.7272 7.95804 19.6301 7.90567 19.517C7.87219 19.4527 7.84117 19.3765 7.76993 19.3456C7.5415 19.3843 7.31952 19.4685 7.08588 19.4706C6.90118 19.4675 6.71962 19.5142 6.53454 19.499C6.32424 19.4793 6.10899 19.4758 5.90808 19.4024C5.59883 19.2943 5.33227 19.0983 5.07301 18.9034C4.8996 18.7257 4.75086 18.5202 4.64566 18.2948C4.59168 18.1283 4.51778 17.9635 4.51181 17.786C4.49815 17.501 4.44588 17.2173 4.46618 16.9312C4.48553 16.5127 4.62934 16.1121 4.81982 15.7422C4.66444 15.5305 4.50061 15.3249 4.33926 15.1179C4.09793 14.7616 3.78346 14.4631 3.51918 14.124C3.40582 13.9702 3.26049 13.8437 3.13167 13.7035C3.02865 13.6017 2.87165 13.6418 2.74605 13.5962C2.50558 13.5161 2.30694 13.3526 2.11456 13.1943C1.83254 12.9442 1.67241 12.5952 1.52765 12.2564C1.41998 11.9775 1.39987 11.6744 1.43127 11.3796C1.48838 11.0298 1.55791 10.666 1.76215 10.3677C1.90416 10.1774 2.08088 10.0135 2.27696 9.87891Z" fill="black"/>
<path d="M19.9148 10.0743C20.0891 10.1827 20.2728 10.2922 20.4842 10.2994C20.3854 10.7049 20.3641 11.1235 20.318 11.5369C20.2603 11.8758 20.2158 12.2188 20.1089 12.547C20.0799 12.6329 20.0551 12.7201 20.0346 12.8084C19.8639 12.7677 19.689 12.7494 19.5166 12.7201C19.5319 12.1681 19.5845 11.6171 19.6675 11.0714C19.7602 10.7407 19.7694 10.3897 19.9148 10.0743Z" fill="#B57741"/>
<path d="M2.20402 10.5501C2.32231 10.3765 2.51147 10.2723 2.6954 10.1812C2.70451 10.527 2.73098 10.8722 2.73088 11.2178C2.73392 11.4661 2.69256 11.7236 2.77765 11.9629C2.79672 12.0214 2.81702 12.0953 2.88456 12.1146C3.10786 12.1889 3.34682 12.1847 3.57838 12.2093C3.72152 12.2257 3.86609 12.2418 4.01075 12.2279C4.10713 12.2153 4.19744 12.1274 4.19052 12.0267C4.17762 11.7577 4.16415 11.4889 4.16415 11.2199C4.1631 10.8893 4.12582 10.5594 4.14053 10.2286C4.37417 10.3204 4.5397 10.5193 4.69015 10.7097C4.86698 11.1575 5.07188 11.6319 4.9846 12.1237C4.95453 12.4402 4.64842 12.6079 4.46296 12.8315C4.59064 13.0645 4.75011 13.2766 4.92304 13.4771C5.22593 13.8808 5.51725 14.2936 5.83229 14.6883C5.57094 14.8333 5.32165 15.017 5.14018 15.2562C4.99542 15.0981 4.88462 14.9126 4.73445 14.7594C4.60136 14.6217 4.49455 14.461 4.35558 14.3285C4.0912 14.0622 3.87444 13.753 3.60038 13.4962C3.50685 13.4117 3.50476 13.2531 3.384 13.1971C3.16687 13.1295 2.90343 13.1754 2.72348 13.0123C2.57322 12.8823 2.4074 12.7659 2.28285 12.6096C2.17461 12.4437 2.06429 12.2768 1.98954 12.0926C1.92076 11.9389 1.90796 11.7686 1.89316 11.6036C1.91687 11.2363 2.00509 10.8647 2.20402 10.5501Z" fill="#B2B3B5"/>
<path d="M13.8226 10.4852C13.8793 10.4426 13.9555 10.4439 14.0234 10.437C14.1348 10.421 14.2281 10.5222 14.2459 10.624C14.2913 10.8319 14.4338 10.9968 14.5461 11.1715C14.6324 11.3074 14.8118 11.4522 14.9695 11.3966C15.1536 11.3315 15.2728 11.1684 15.4335 11.0588C15.5489 11.04 15.5701 11.1911 15.5923 11.2725C15.6015 11.4361 15.4218 11.4963 15.3216 11.5902C15.1654 11.7359 14.9514 11.8361 14.7339 11.7956C14.7629 11.9872 14.7408 12.183 14.6698 12.3634C14.5641 12.5193 14.4276 12.696 14.22 12.7036C14.0495 12.7019 13.8542 12.6919 13.7316 12.5581C13.5823 12.3926 13.4581 12.1877 13.4582 11.9588C13.1424 11.954 12.8052 11.9844 12.5195 11.8234C12.4341 11.7305 12.3553 11.5813 12.4348 11.4628C12.5597 11.3365 12.7236 11.487 12.8616 11.509C13.0527 11.5394 13.2843 11.5875 13.438 11.4286C13.5908 11.2481 13.687 11.0264 13.7593 10.8052C13.7975 10.6873 13.7359 10.572 13.8226 10.4852Z" fill="black"/>
<path d="M14.0649 11.2174C14.152 11.3502 14.2421 11.4815 14.3218 11.6191C14.3599 11.6778 14.359 11.7494 14.3631 11.8169C14.3681 11.9365 14.3736 12.0649 14.3125 12.173C14.2431 12.2753 14.0717 12.3083 13.9829 12.212C13.903 12.1255 13.8375 12.0199 13.8107 11.9047C13.7832 11.8197 13.8483 11.7488 13.8841 11.6779C13.9686 11.5348 14.0209 11.3762 14.0649 11.2174Z" fill="#F31E3E"/>
<path d="M18.7737 13.2823C18.9325 13.2043 19.1122 13.226 19.283 13.2316C19.5737 13.2563 19.8482 13.3621 20.1299 13.4298C20.2984 13.8453 20.3369 14.3219 20.1764 14.7458C20.0334 15.0783 19.8594 15.4032 19.6086 15.6687C19.4062 15.8753 19.1515 16.0181 18.9034 16.1633C18.7741 16.2383 18.6301 16.3054 18.4759 16.2891C18.3725 16.228 18.281 16.15 18.1889 16.0743C18.0388 15.9601 17.943 15.7933 17.8505 15.6336C17.7599 15.4809 17.7541 15.3007 17.7138 15.1331C17.6762 14.8684 17.7222 14.5948 17.84 14.3548C17.9262 14.1851 17.9724 13.9916 18.111 13.8533C18.2733 13.6085 18.4826 13.3724 18.7737 13.2823Z" fill="white"/>
<path d="M20.1299 13.4297C20.2567 13.4888 20.3802 13.5545 20.4999 13.6266C20.6432 13.7139 20.705 13.8766 20.7958 14.0093C20.8603 14.1036 20.9182 14.2054 20.9382 14.3198C21.0224 14.7709 21.0074 15.2531 20.8156 15.6762C20.5889 16.1038 20.1488 16.4145 19.6689 16.4908C19.4764 16.5033 19.2811 16.5327 19.0894 16.5007C18.8777 16.4549 18.6685 16.39 18.4759 16.289C18.6301 16.3053 18.7741 16.2382 18.9034 16.1632C19.1514 16.018 19.4062 15.8751 19.6086 15.6686C19.8595 15.4031 20.0335 15.0782 20.1764 14.7457C20.3369 14.3218 20.2984 13.8452 20.1299 13.4297Z" fill="#F59C32"/>
<path d="M6.83943 14.9755C7.01075 14.9558 7.18283 14.947 7.35444 14.9289C7.6726 14.9301 7.94524 15.1125 8.22612 15.236C8.39317 15.3341 8.49828 15.5038 8.63934 15.6318C8.82972 15.7915 8.88455 16.0467 8.96348 16.2701C8.99716 16.6328 9.10748 17.0178 8.94991 17.3678C8.83817 17.6023 8.78912 17.87 8.61591 18.0717C8.49894 18.1662 8.3631 18.2345 8.22546 18.2937C8.05025 18.3688 7.85635 18.3277 7.67279 18.3279C7.33148 18.3316 7.04215 18.1189 6.79731 17.9062C6.54384 17.6872 6.34539 17.4099 6.20073 17.1105C6.10122 16.9018 6.01157 16.683 5.98833 16.4515C5.96908 16.2801 5.97097 16.1071 5.97448 15.935C5.97894 15.6846 6.06678 15.4465 6.14628 15.2117C6.37508 15.1275 6.60067 15.0292 6.83943 14.9755Z" fill="white"/>
<path d="M5.43405 15.8057C5.62586 15.5613 5.84718 15.3237 6.14637 15.2116C6.06688 15.4464 5.97903 15.6846 5.97458 15.9349C5.97107 16.107 5.96907 16.28 5.98843 16.4514C6.01167 16.6829 6.10131 16.9017 6.20082 17.1104C6.34548 17.4098 6.54394 17.6871 6.79741 17.9061C7.04215 18.1188 7.33157 18.3315 7.67288 18.3278C7.85654 18.3276 8.05034 18.3687 8.22555 18.2937C8.36319 18.2344 8.49903 18.1661 8.616 18.0716C8.41508 18.3544 8.10583 18.555 7.77363 18.6528C7.53619 18.7556 7.28803 18.8614 7.02308 18.8472C6.75832 18.8308 6.48664 18.9077 6.22843 18.8238C5.95029 18.7503 5.65688 18.6438 5.46564 18.4196C5.28133 18.1529 5.15127 17.8498 5.05745 17.5411C5.00101 17.1479 5.04778 16.7381 5.18286 16.3641C5.27355 16.1808 5.31111 15.9724 5.43405 15.8057Z" fill="#F59C32"/>
<path d="M8.91055 18.6158C9.12712 18.7518 9.30764 18.9334 9.50524 19.0935C9.65388 19.2255 9.79732 19.3751 9.88089 19.5573C9.92045 19.7244 9.93724 19.9291 9.80728 20.0641C9.67295 20.1845 9.46511 20.2609 9.2936 20.1724C9.11403 20.0809 8.94309 19.9646 8.81635 19.8071C8.65025 19.5897 8.46593 19.3866 8.31226 19.16C8.43766 19.0822 8.57294 19.0135 8.67245 18.9024C8.75583 18.8102 8.83267 18.7129 8.91055 18.6158Z" fill="#B2B3B5"/>
<path d="M9.17302 19.3881C9.31437 19.3698 9.42725 19.4716 9.53018 19.5516C9.59506 19.5983 9.60142 19.6922 9.56784 19.7592C9.50874 19.8427 9.38665 19.8176 9.3174 19.7622C9.20964 19.6716 9.11706 19.5327 9.17302 19.3881Z" fill="black"/>
</svg>
