<svg width="290" height="71" viewBox="0 0 290 71" fill="none" xmlns="http://www.w3.org/2000/svg">
<g filter="url(#filter0_d_7_2)">
<path d="M17.4976 46.0705C20.3989 46.0705 22.5109 45.5159 23.8336 44.4065C25.1563 43.2972 25.8176 41.8679 25.8176 40.1185C25.8176 38.9239 25.4763 37.9425 24.7936 37.1745C24.1109 36.3639 23.0229 35.6172 21.5296 34.9345L16.8576 32.8225C14.3829 31.7132 12.5056 30.2839 11.2256 28.5345C9.9456 26.7425 9.3056 24.4812 9.3056 21.7505C9.3056 19.2332 9.83893 16.9719 10.9056 14.9665C12.0149 12.9185 13.7003 11.3185 15.9616 10.1665C18.2229 8.97188 21.1029 8.37454 24.6016 8.37454C26.5643 8.37454 28.4629 8.60921 30.2976 9.07854C32.1323 9.54788 34.0949 10.2519 36.1856 11.1905L33.4976 17.7825C31.6629 17.0145 30.0843 16.4385 28.7616 16.0545C27.4389 15.6705 26.0523 15.4785 24.6016 15.4785C19.7803 15.4785 17.3696 17.3345 17.3696 21.0465C17.3696 22.1985 17.6896 23.1372 18.3296 23.8625C18.9696 24.5879 20.0576 25.3132 21.5936 26.0385L26.2656 28.1505C28.6549 29.2172 30.5109 30.6465 31.8336 32.4385C33.1989 34.2305 33.8816 36.5772 33.8816 39.4785C33.8816 41.9105 33.3269 44.1719 32.2176 46.2625C31.1509 48.3532 29.4016 50.0385 26.9696 51.3185C24.5803 52.5559 21.4229 53.1745 17.4976 53.1745C15.2789 53.1745 13.1029 52.9399 10.9696 52.4705C8.83627 51.9585 6.5536 51.1052 4.1216 49.9105L6.8096 43.3185C9.02827 44.3425 10.9269 45.0679 12.5056 45.4945C14.0843 45.8785 15.7483 46.0705 17.4976 46.0705ZM58.3741 52.5345L59.3341 47.0305C56.9874 49.4625 54.8968 51.1052 53.0621 51.9585C51.2274 52.7692 49.5634 53.1745 48.0701 53.1745C46.0221 53.1745 44.3581 52.6412 43.0781 51.5745C41.8408 50.5079 41.0088 49.0785 40.5821 47.2865C40.1554 45.4519 40.1554 43.3825 40.5821 41.0785L44.2941 20.0865H51.6541L48.0061 40.9505C47.7074 42.7852 47.7928 44.1505 48.2621 45.0465C48.7314 45.8999 49.4994 46.3265 50.5661 46.3265C51.5474 46.3265 52.7634 45.9212 54.2141 45.1105C55.7074 44.2999 57.6914 42.6572 60.1661 40.1825L63.6861 20.0865H71.0461L65.3501 52.5345H58.3741ZM98.3301 26.8065C97.3488 26.8065 96.2394 26.9132 95.0021 27.1265C93.8074 27.3399 92.4848 27.8305 91.0341 28.5985C89.6261 29.3665 88.0901 30.5825 86.4261 32.2465L82.8421 52.5345H75.4821L81.1781 20.0865H88.1541L87.1941 25.6545C89.7114 23.1372 91.9941 21.4732 94.0421 20.6625C96.1328 19.8519 97.9888 19.4465 99.6101 19.4465L98.3301 26.8065ZM123.592 26.4865H113.48L108.872 52.5345H101.512L106.12 26.4865H100.872L101.96 20.0865H107.272L107.848 16.6945C108.531 12.8972 109.896 9.93188 111.944 7.79854C114.035 5.62254 117.149 4.53454 121.288 4.53454C122.867 4.53454 124.339 4.70521 125.704 5.04654C127.069 5.34521 128.307 5.72921 129.416 6.19854L126.728 12.4705C124.808 11.7879 123.059 11.4465 121.48 11.4465C119.773 11.4465 118.387 11.8305 117.32 12.5985C116.253 13.3239 115.549 14.6892 115.208 16.6945L114.568 20.0865H124.68L123.592 26.4865ZM135.435 46.0705C138.336 46.0705 140.448 45.5159 141.771 44.4065C143.094 43.2972 143.755 41.8679 143.755 40.1185C143.755 38.9239 143.414 37.9425 142.731 37.1745C142.048 36.3639 140.96 35.6172 139.467 34.9345L134.795 32.8225C132.32 31.7132 130.443 30.2839 129.163 28.5345C127.883 26.7425 127.243 24.4812 127.243 21.7505C127.243 19.2332 127.776 16.9719 128.843 14.9665C129.952 12.9185 131.638 11.3185 133.899 10.1665C136.16 8.97188 139.04 8.37454 142.539 8.37454C144.502 8.37454 146.4 8.60921 148.235 9.07854C150.07 9.54788 152.032 10.2519 154.123 11.1905L151.435 17.7825C149.6 17.0145 148.022 16.4385 146.699 16.0545C145.376 15.6705 143.99 15.4785 142.539 15.4785C137.718 15.4785 135.307 17.3345 135.307 21.0465C135.307 22.1985 135.627 23.1372 136.267 23.8625C136.907 24.5879 137.995 25.3132 139.531 26.0385L144.203 28.1505C146.592 29.2172 148.448 30.6465 149.771 32.4385C151.136 34.2305 151.819 36.5772 151.819 39.4785C151.819 41.9105 151.264 44.1719 150.155 46.2625C149.088 48.3532 147.339 50.0385 144.907 51.3185C142.518 52.5559 139.36 53.1745 135.435 53.1745C133.216 53.1745 131.04 52.9399 128.907 52.4705C126.774 51.9585 124.491 51.1052 122.059 49.9105L124.747 43.3185C126.966 44.3425 128.864 45.0679 130.443 45.4945C132.022 45.8785 133.686 46.0705 135.435 46.0705ZM173.496 26.2305C171.533 26.2305 169.869 26.8705 168.504 28.1505C167.138 29.3879 166.221 31.2439 165.752 33.7185L165.048 37.5585C163.981 43.4465 165.901 46.3905 170.808 46.3905C171.832 46.3905 172.898 46.2839 174.008 46.0705C175.16 45.8145 176.546 45.4092 178.168 44.8545L179.256 51.1905C177.293 51.9159 175.565 52.4279 174.072 52.7265C172.621 53.0252 171.234 53.1745 169.912 53.1745C165.304 53.1745 161.933 51.7239 159.8 48.8225C157.709 45.8785 157.09 41.9532 157.944 37.0465L158.52 33.7185C159.373 28.9825 161.101 25.4199 163.704 23.0305C166.349 20.6412 169.592 19.4465 173.432 19.4465C176.376 19.4465 179.554 20.1719 182.968 21.6225L180.536 27.9585C177.848 26.8065 175.501 26.2305 173.496 26.2305ZM213.004 52.8545C210.657 52.8545 208.908 52.3639 207.756 51.3825C206.646 50.3585 205.921 49.1212 205.58 47.6705C203.276 49.8892 201.206 51.3612 199.372 52.0865C197.537 52.8119 195.916 53.1745 194.508 53.1745C192.417 53.1745 190.689 52.5132 189.324 51.1905C187.958 49.8252 187.02 47.9692 186.508 45.6225C186.038 43.2332 186.038 40.5025 186.508 37.4305L186.956 34.6145C187.766 29.6652 189.388 25.9105 191.82 23.3505C194.294 20.7479 197.729 19.4465 202.124 19.4465C204.598 19.4465 207.009 19.8092 209.356 20.5345C211.745 21.2599 213.942 22.2839 215.948 23.6065L212.492 43.3825C212.406 44.0225 212.492 44.6412 212.748 45.2385C213.046 45.7932 213.686 46.0705 214.668 46.0705H215.436L214.22 52.8545H213.004ZM194.06 37.4305C193.59 40.5025 193.633 42.7639 194.188 44.2145C194.742 45.6225 195.681 46.3265 197.004 46.3265C198.113 46.3265 199.372 45.8999 200.78 45.0465C202.23 44.1505 203.873 42.5505 205.708 40.2465L207.948 27.3185C206.198 26.4652 204.47 26.0385 202.764 26.0385C200.374 26.0385 198.497 26.8065 197.132 28.3425C195.809 29.8785 194.934 31.9692 194.508 34.6145L194.06 37.4305ZM235.827 53.1745C234.504 53.1745 233.246 53.0252 232.051 52.7265C230.856 52.4705 229.704 52.1079 228.595 51.6385L226.035 66.1665H218.675L226.803 20.0865H233.779L232.819 25.5265C235.166 23.0092 237.214 21.3665 238.963 20.5985C240.712 19.8305 242.27 19.4465 243.635 19.4465C245.768 19.4465 247.518 20.1292 248.883 21.4945C250.248 22.8172 251.187 24.6519 251.699 26.9985C252.211 29.3452 252.211 32.0759 251.699 35.1905L251.251 38.0065C250.483 42.9132 248.84 46.6679 246.323 49.2705C243.806 51.8732 240.307 53.1745 235.827 53.1745ZM240.947 26.2945C239.838 26.2945 238.536 26.8279 237.043 27.8945C235.592 28.9612 233.843 30.7745 231.795 33.3345L229.747 45.1745C231.667 46.1132 233.48 46.5825 235.187 46.5825C237.704 46.5825 239.646 45.8145 241.011 44.2785C242.376 42.6999 243.272 40.6092 243.699 38.0065L244.147 35.1905C244.659 32.1185 244.616 29.8785 244.019 28.4705C243.464 27.0199 242.44 26.2945 240.947 26.2945ZM282.192 50.9985C279.845 51.8945 277.776 52.4705 275.984 52.7265C274.235 53.0252 272.592 53.1745 271.056 53.1745C266.107 53.1745 262.501 51.7239 260.24 48.8225C258.021 45.8785 257.317 41.9532 258.128 37.0465L258.704 33.7185C259.472 29.3665 261.2 25.9105 263.888 23.3505C266.576 20.7479 269.904 19.4465 273.872 19.4465C275.963 19.4465 277.904 19.8092 279.696 20.5345C281.531 21.2599 283.024 22.4332 284.176 24.0545C285.328 25.6332 285.904 27.7452 285.904 30.3905C285.904 33.1639 285.072 35.8945 283.408 38.5825H264.912C264.613 41.1852 265.019 43.1692 266.128 44.5345C267.237 45.8572 269.2 46.5185 272.016 46.5185C272.955 46.5185 274.213 46.3905 275.792 46.1345C277.371 45.8785 279.163 45.4092 281.168 44.7265L282.192 50.9985ZM273.616 25.8465C269.605 25.8465 267.045 28.2145 265.936 32.9505H278.416C278.715 32.0545 278.864 31.2012 278.864 30.3905C278.864 28.8972 278.373 27.7665 277.392 26.9985C276.453 26.2305 275.195 25.8465 273.616 25.8465Z" fill="white"/>
</g>
<defs>
<filter id="filter0_d_7_2" x="0.121601" y="0.534546" width="289.783" height="69.632" filterUnits="userSpaceOnUse" color-interpolation-filters="sRGB">
<feFlood flood-opacity="0" result="BackgroundImageFix"/>
<feColorMatrix in="SourceAlpha" type="matrix" values="0 0 0 0 0 0 0 0 0 0 0 0 0 0 0 0 0 0 127 0" result="hardAlpha"/>
<feOffset/>
<feGaussianBlur stdDeviation="2"/>
<feComposite in2="hardAlpha" operator="out"/>
<feColorMatrix type="matrix" values="0 0 0 0 0 0 0 0 0 0 0 0 0 0 0 0 0 0 0.5 0"/>
<feBlend mode="normal" in2="BackgroundImageFix" result="effect1_dropShadow_7_2"/>
<feBlend mode="normal" in="SourceGraphic" in2="effect1_dropShadow_7_2" result="shape"/>
</filter>
</defs>
</svg>
