<svg width="256" height="256" viewBox="0 0 256 256" fill="none" xmlns="http://www.w3.org/2000/svg">
<rect width="256" height="256" rx="64" fill="#DFE2FF"/>
<path d="M137.995 187.596C138.163 170.751 133.823 157.053 128.303 157C122.783 156.947 118.172 170.559 118.005 187.404C117.837 204.249 122.177 217.947 127.697 218C133.217 218.053 137.828 204.441 137.995 187.596Z" fill="black"/>
<path d="M68.5962 118.005C51.7514 117.837 38.0534 122.177 38.0002 127.697C37.9473 133.217 51.5595 137.828 68.4038 137.995C85.2486 138.163 98.947 133.823 98.9998 128.303C99.0531 122.783 85.4409 118.172 68.5962 118.005Z" fill="black"/>
<path d="M187.596 118.005C170.751 117.837 157.053 122.177 157 127.697C156.947 133.217 170.559 137.828 187.404 137.995C204.249 138.163 217.947 133.823 218 128.303C218.053 122.783 204.441 118.172 187.596 118.005Z" fill="black"/>
<path d="M186.774 172.638C174.981 160.609 162.226 153.991 158.285 157.857C154.345 161.723 160.709 174.609 172.502 186.638C184.295 198.667 197.05 205.285 200.99 201.419C204.931 197.553 198.566 184.667 186.774 172.638Z" fill="black"/>
<path d="M83.6376 186.774C95.667 174.981 102.284 162.226 98.4188 158.285C94.5526 154.345 81.667 160.709 69.6381 172.502C57.6087 184.295 50.991 197.05 54.8569 200.99C58.7229 204.931 71.6084 198.566 83.6376 186.774Z" fill="black"/>
<path d="M186.638 83.7736C198.667 71.981 205.284 59.2264 201.419 55.2855C197.553 51.3445 184.667 57.7095 172.638 69.5021C160.609 81.2947 153.991 94.0495 157.857 97.9902C161.723 101.931 174.608 95.5664 186.638 83.7736Z" fill="black"/>
<path d="M137.995 68.5962C138.163 51.7514 133.823 38.0534 128.303 38.0002C122.783 37.9473 118.172 51.5595 118.005 68.4038C117.837 85.2486 122.177 98.947 127.697 98.9998C133.217 99.0531 137.828 85.4409 137.995 68.5962Z" fill="black"/>
<path d="M83.7736 69.6381C71.981 57.6086 59.2264 50.9912 55.2855 54.8569C51.3445 58.7231 57.7095 71.6087 69.5021 83.6376C81.2947 95.667 94.0495 102.285 97.9902 98.4188C101.931 94.5528 95.5664 81.6673 83.7736 69.6381Z" fill="black"/>
<path d="M105.764 128.681C105.061 128.241 105.071 127.15 105.798 126.751C114.357 122.043 122.308 114.191 127.068 105.742C127.471 105.028 128.529 105.028 128.931 105.742C133.692 114.191 141.643 122.043 150.202 126.751C150.929 127.15 150.939 128.241 150.236 128.681C142.033 133.824 131.743 147.026 128.812 150.91C128.404 151.451 127.596 151.451 127.187 150.91C124.257 147.026 113.967 133.824 105.764 128.681Z" fill="#1C1FFF"/>
</svg>
