<svg width="243" height="78" viewBox="0 0 243 78" fill="none" xmlns="http://www.w3.org/2000/svg">
<path d="M34.9374 65.0444C34.8654 57.8078 36.7301 51.9231 39.1021 51.9002C41.4742 51.8775 43.4554 57.7254 43.5272 64.9618C43.5992 72.1983 41.474 77.9772 39.1021 77.9999C36.73 78.0228 35.0092 72.281 34.9374 65.0444Z" fill="#E6E6E6"/>
<path d="M13.0644 34.889C20.3024 34.817 26.1884 36.6814 26.2113 39.0528C26.234 41.4244 20.3849 43.4053 13.147 43.4771C5.90891 43.549 0.022778 41.6847 6.68323e-05 39.3132C-0.0228021 36.9416 5.82627 34.9608 13.0644 34.889Z" fill="#E6E6E6"/>
<path d="M13.5405 58.3529C18.6077 53.185 24.0883 50.3421 25.7817 52.0028C27.4751 53.6638 24.7401 59.1995 19.6729 64.3671C14.6056 69.535 9.12496 72.378 7.43167 70.7172C5.73816 69.0564 8.47314 63.5207 13.5405 58.3529Z" fill="#E6E6E6"/>
<path d="M13.5989 20.1763C8.42991 15.1101 5.58645 9.63071 7.2475 7.93767C8.90879 6.24462 14.4456 8.97903 19.6144 14.0452C24.7834 19.1113 27.627 24.5909 25.9658 26.2838C24.3046 27.977 18.7678 25.2426 13.5989 20.1763Z" fill="#E6E6E6"/>
<path d="M34.6769 13.1443C34.605 5.90774 36.7301 0.02293 39.1021 6.59004e-05C41.4742 -0.0226405 43.195 5.82528 43.2668 13.0617C43.3387 20.2983 41.474 26.1832 39.1021 26.2059C36.73 26.2287 34.7487 20.3809 34.6769 13.1443Z" fill="#E6E6E6"/>
<path d="M39.1021 28.6528L28.6666 39.0528L39.1021 49.4528L49.5375 39.0528L39.1021 28.6528Z" fill="#3C78C6"/>
<path d="M63.5939 53.3153C61.448 53.3153 59.6257 52.9092 58.127 52.097C56.6623 51.2847 55.4361 50.1172 54.4483 48.5943L57.7693 45.5992C58.5868 46.9191 59.4384 47.8328 60.324 48.3405C61.2436 48.8481 62.3847 49.1019 63.7472 49.1019C65.28 49.1019 66.4721 48.7804 67.3237 48.1374C68.2093 47.4606 68.6521 46.4622 68.6521 45.1424C68.6521 44.364 68.4477 43.721 68.039 43.2134C67.6302 42.7057 66.8809 42.2658 65.7909 41.8935L63.5939 41.1321C61.4139 40.3875 59.8641 39.4907 58.9445 38.4416C58.0589 37.3925 57.6161 35.988 57.6161 34.2282C57.6161 33.0438 57.8204 31.9439 58.2292 30.9286C58.6379 29.8795 59.234 28.9658 60.0174 28.1874C60.8349 27.409 61.8397 26.7999 63.0319 26.3599C64.2581 25.92 65.6887 25.7 67.3237 25.7C69.163 25.7 70.7128 26.0215 71.9731 26.6645C73.2675 27.3075 74.4256 28.3228 75.4474 29.7103L72.1264 32.7053C70.9342 30.844 69.1971 29.9134 66.9149 29.9134C65.4843 29.9134 64.3944 30.2349 63.645 30.8779C62.9297 31.487 62.572 32.3838 62.572 33.5683C62.572 34.3805 62.7764 35.0405 63.1852 35.5481C63.628 36.0219 64.3433 36.428 65.3311 36.7664L67.528 37.5279C69.708 38.2724 71.2578 39.1692 72.1775 40.2183C73.1312 41.2336 73.6081 42.655 73.6081 44.4824C73.6081 47.2237 72.7054 49.3896 70.9002 50.9802C69.0949 52.5369 66.6595 53.3153 63.5939 53.3153Z" fill="#E6E6E6"/>
<path d="M85.7889 26.3091L82.5701 42.5027C82.2976 43.6872 82.1613 44.7701 82.1613 45.7515C82.1613 46.936 82.3997 47.7821 82.8766 48.2897C83.3535 48.7973 84.0858 49.0512 85.0736 49.0512C85.9592 49.0512 86.7256 48.865 87.3728 48.4928C88.02 48.0867 88.6331 47.5113 89.2121 46.7668C89.8593 45.9546 90.4043 45.0408 90.8471 44.0256C91.3239 42.9765 91.6646 41.9612 91.8689 40.9798L94.8323 26.3091H99.8905L95.4454 48.5435H98.4088L97.5913 52.7061H93.3506C91.2388 52.7061 90.1829 51.7247 90.1829 49.7618C90.1829 49.5249 90.1999 49.288 90.234 49.0512C90.268 48.7804 90.3191 48.5097 90.3872 48.2389L90.5916 47.1729H90.0296C88.4968 51.2678 85.9592 53.3153 82.4168 53.3153C80.5434 53.3153 79.1468 52.74 78.2272 51.5893C77.3416 50.4387 76.8988 48.7804 76.8988 46.6145C76.8988 46.0392 76.9499 45.4131 77.052 44.7363C77.1542 44.0256 77.2734 43.3487 77.4097 42.7057L80.7307 26.3091H85.7889Z" fill="#E6E6E6"/>
<path d="M100.424 52.7061L105.737 26.3091H110.796L109.672 31.8424H110.285C110.864 30.0487 111.698 28.6781 112.788 27.7305C113.878 26.7829 115.326 26.3091 117.131 26.3091H118.613L117.54 31.284H115.19C113.282 31.284 111.8 31.7747 110.744 32.7561C109.723 33.7375 108.99 35.3112 108.548 37.4771L105.482 52.7061H100.424Z" fill="#E6E6E6"/>
<path d="M121.81 57.884C121.47 59.6099 120.84 60.8621 119.92 61.6405C119 62.4527 117.672 62.8588 115.935 62.8588H111.49L112.307 58.6962H116.599L122.27 30.4717H118.745L119.562 26.3091H123.139L124.365 20.116C124.706 18.3901 125.336 17.1379 126.256 16.3595C127.175 15.5473 128.504 15.1412 130.241 15.1412H134.992L134.124 19.3038H129.577L128.197 26.3091H132.693L131.876 30.4717H127.328L121.81 57.884Z" fill="#E6E6E6"/>
<path d="M138.644 53.3153C136.498 53.3153 134.676 52.9092 133.177 52.097C131.713 51.2847 130.487 50.1172 129.499 48.5943L132.82 45.5992C133.637 46.9191 134.489 47.8328 135.374 48.3405C136.294 48.8481 137.435 49.1019 138.798 49.1019C140.33 49.1019 141.523 48.7804 142.374 48.1374C143.26 47.4606 143.702 46.4622 143.702 45.1424C143.702 44.364 143.498 43.721 143.089 43.2134C142.681 42.7057 141.931 42.2658 140.841 41.8935L138.644 41.1321C136.464 40.3875 134.915 39.4907 133.995 38.4416C133.109 37.3925 132.666 35.988 132.666 34.2282C132.666 33.0438 132.871 31.9439 133.28 30.9286C133.688 29.8795 134.284 28.9658 135.068 28.1874C135.885 27.409 136.89 26.7999 138.082 26.3599C139.309 25.92 140.739 25.7 142.374 25.7C144.213 25.7 145.763 26.0215 147.024 26.6645C148.318 27.3075 149.476 28.3228 150.498 29.7103L147.177 32.7053C145.985 30.844 144.247 29.9134 141.965 29.9134C140.535 29.9134 139.445 30.2349 138.695 30.8779C137.98 31.487 137.622 32.3838 137.622 33.5683C137.622 34.3805 137.827 35.0405 138.236 35.5481C138.678 36.0219 139.394 36.428 140.381 36.7664L142.578 37.5279C144.758 38.2724 146.308 39.1692 147.228 40.2183C148.182 41.2336 148.658 42.655 148.658 44.4824C148.658 47.2237 147.756 49.3896 145.951 50.9802C144.145 52.5369 141.71 53.3153 138.644 53.3153Z" fill="#3C78C6"/>
<path d="M160.226 53.3153C158.693 53.3153 157.365 53.0784 156.241 52.6046C155.117 52.097 154.197 51.4201 153.482 50.5741C152.767 49.6942 152.222 48.662 151.847 47.4775C151.506 46.293 151.336 44.9901 151.336 43.5687C151.336 42.7226 151.387 41.792 151.489 40.7767C151.626 39.7276 151.779 38.7462 151.949 37.8324C152.733 34.0421 154.129 31.0809 156.139 28.9488C158.182 26.7829 160.805 25.7 164.007 25.7C166.46 25.7 168.35 26.2922 169.678 27.4767C171.041 28.6612 171.909 30.201 172.284 32.0962L167.992 33.8729C167.754 32.4854 167.294 31.487 166.613 30.8779C165.932 30.2687 164.944 29.9641 163.649 29.9641C162.014 29.9641 160.72 30.4887 159.766 31.5378C158.847 32.5869 158.148 34.2452 157.672 36.5126L156.599 41.8428C156.53 42.215 156.479 42.6211 156.445 43.0611C156.411 43.4672 156.394 43.8564 156.394 44.2286C156.394 45.9207 156.752 47.156 157.467 47.9344C158.217 48.6789 159.289 49.0512 160.686 49.0512C162.117 49.0512 163.258 48.6789 164.109 47.9344C164.995 47.1898 165.727 45.9715 166.306 44.2794L170.343 46.1576C169.389 48.5266 168.043 50.3202 166.306 51.5386C164.603 52.723 162.576 53.3153 160.226 53.3153Z" fill="#3C78C6"/>
<path d="M189.321 52.7061C187.175 52.7061 186.102 51.7585 186.102 49.8634C186.102 49.4234 186.17 48.8819 186.307 48.2389L186.562 46.9191H186C185.183 49.0512 184.178 50.6587 182.986 51.7416C181.793 52.7907 180.244 53.3153 178.336 53.3153C176.19 53.3153 174.555 52.5877 173.431 51.1325C172.307 49.6772 171.745 47.5621 171.745 44.787C171.745 43.8056 171.796 42.7565 171.898 41.6397C172.035 40.5229 172.205 39.4569 172.409 38.4416C173.193 34.3805 174.504 31.2501 176.344 29.0504C178.183 26.8168 180.567 25.7 183.497 25.7C185.132 25.7 186.46 26.1399 187.482 27.0198C188.538 27.8997 189.117 29.1519 189.219 30.7763H189.832L190.701 26.3091H195.759L191.263 48.5435H194.328L193.511 52.7061H189.321ZM180.635 49.0512C182.441 49.0512 183.956 48.1882 185.183 46.4622C185.762 45.6162 186.29 44.7193 186.766 43.7718C187.277 42.7903 187.618 41.8597 187.788 40.9798L188.963 34.9897C189.1 34.3467 189.083 33.7375 188.912 33.1622C188.776 32.553 188.504 32.0116 188.095 31.5378C187.72 31.064 187.226 30.6917 186.613 30.421C186 30.1164 185.302 29.9641 184.518 29.9641C182.781 29.9641 181.402 30.5225 180.38 31.6393C179.358 32.7561 178.626 34.4144 178.183 36.6141L177.212 41.4874C177.076 42.0627 176.974 42.6719 176.906 43.3149C176.872 43.9241 176.854 44.4148 176.854 44.787C176.854 47.6298 178.115 49.0512 180.635 49.0512Z" fill="#3C78C6"/>
<path d="M201.596 26.3091H206.654L205.479 32.0962H206.041C206.859 29.9641 207.864 28.3735 209.056 27.3244C210.248 26.2415 211.798 25.7 213.705 25.7C215.851 25.7 217.486 26.4276 218.61 27.8828C219.734 29.338 220.296 31.4532 220.296 34.2282C220.296 35.2097 220.228 36.2588 220.092 37.3756C219.99 38.4924 219.836 39.5584 219.632 40.5737C218.848 44.6347 217.537 47.7821 215.698 50.0157C213.858 52.2154 211.474 53.3153 208.545 53.3153C206.91 53.3153 205.564 52.8753 204.508 51.9954C203.487 51.1155 202.925 49.8634 202.822 48.2389H202.209L199.297 62.8588H194.239L201.596 26.3091ZM207.523 49.0512C209.26 49.0512 210.64 48.4928 211.661 47.376C212.683 46.2592 213.416 44.6009 213.858 42.4011L214.829 37.5279C214.965 36.9525 215.051 36.3603 215.085 35.7511C215.153 35.142 215.187 34.6513 215.187 34.279C215.187 31.4024 213.927 29.9641 211.406 29.9641C209.601 29.9641 208.085 30.8271 206.859 32.553C206.28 33.3991 205.735 34.3128 205.224 35.2943C204.747 36.2419 204.423 37.1556 204.253 38.0355L203.078 44.0256C202.942 44.6686 202.942 45.2947 203.078 45.9038C203.248 46.513 203.521 47.0545 203.895 47.5283C204.304 47.9682 204.815 48.3405 205.428 48.6451C206.041 48.9158 206.739 49.0512 207.523 49.0512Z" fill="#3C78C6"/>
<path d="M230.993 53.3153C227.791 53.3153 225.441 52.4523 223.942 50.7263C222.444 48.9665 221.694 46.5807 221.694 43.5687C221.694 42.7226 221.745 41.7751 221.848 40.726C221.95 39.6768 222.103 38.7123 222.307 37.8324C223.193 33.8729 224.675 30.8609 226.753 28.7966C228.83 26.7322 231.504 25.7 234.774 25.7C237.158 25.7 239.117 26.3091 240.65 27.5275C242.217 28.712 243 30.4887 243 32.8576C243 35.8357 241.689 38.0186 239.066 39.4061C236.477 40.7936 232.458 41.5551 227.008 41.6905C226.906 42.1642 226.838 42.6211 226.804 43.0611C226.77 43.501 226.753 43.8733 226.753 44.1779C226.753 45.87 227.11 47.1052 227.825 47.8836C228.575 48.662 229.716 49.0512 231.249 49.0512C234.178 49.0512 236.494 47.7144 238.197 45.0408L241.314 47.6805C238.93 51.437 235.489 53.3153 230.993 53.3153ZM234.212 29.8118C232.577 29.8118 231.266 30.3364 230.278 31.3855C229.29 32.4008 228.575 33.9406 228.132 36.005L227.672 38.137C229.716 38.0355 231.402 37.8832 232.73 37.6802C234.059 37.4433 235.098 37.1387 235.847 36.7664C236.63 36.3603 237.175 35.8696 237.482 35.2943C237.789 34.719 237.942 34.0421 237.942 33.2637C237.942 30.9625 236.699 29.8118 234.212 29.8118Z" fill="#3C78C6"/>
</svg>
