<svg width="72" height="72" viewBox="0 0 72 72" fill="none" xmlns="http://www.w3.org/2000/svg">
<rect width="72" height="72" rx="12" fill="#DFE2FF"/>
<path d="M38.8875 53.2167C38.9359 48.3504 37.6822 44.3932 36.0875 44.3778C34.4927 44.3626 33.1607 48.295 33.1125 53.1611C33.0641 58.0274 34.3178 61.9847 35.9125 62C37.5073 62.0153 38.8393 58.0829 38.8875 53.2167Z" fill="black"/>
<path d="M18.8389 33.1125C13.9726 33.0641 10.0154 34.3178 10 35.9125C9.98478 37.5073 13.9172 38.8393 18.7833 38.8876C23.6496 38.9359 27.6069 37.6823 27.6222 36.0876C27.6375 34.4928 23.7051 33.1608 18.8389 33.1125Z" fill="black"/>
<path d="M53.2167 33.1125C48.3504 33.0641 44.3932 34.3178 44.3778 35.9125C44.3625 37.5073 48.2949 38.8393 53.1611 38.8876C58.0273 38.9359 61.9847 37.6823 61.9999 36.0876C62.0153 34.4928 58.0829 33.1608 53.2167 33.1125Z" fill="black"/>
<path d="M52.979 48.8954C49.5723 45.4203 45.8876 43.5086 44.7491 44.6253C43.6106 45.7422 45.4494 49.4647 48.8561 52.9397C52.2629 56.4149 55.9476 58.3267 57.086 57.2099C58.2246 56.093 56.3858 52.3705 52.979 48.8954Z" fill="black"/>
<path d="M23.1842 52.979C26.6594 49.5723 28.571 45.8876 27.4543 44.7491C26.3374 43.6106 22.6149 45.4494 19.1399 48.8562C15.6647 52.2629 13.7529 55.9476 14.8698 57.0861C15.9866 58.2246 19.7091 56.3859 23.1842 52.979Z" fill="black"/>
<path d="M52.9397 23.2235C56.4149 19.8167 58.3266 16.1321 57.2098 14.9936C56.0929 13.8551 52.3704 15.6939 48.8954 19.1006C45.4203 22.5074 43.5085 26.1921 44.6253 27.3305C45.7421 28.4691 49.4646 26.6303 52.9397 23.2235Z" fill="black"/>
<path d="M38.8875 18.8389C38.9359 13.9726 37.6822 10.0154 36.0875 10C34.4927 9.98478 33.1607 13.9172 33.1125 18.7833C33.0641 23.6496 34.3178 27.6069 35.9125 27.6222C37.5073 27.6375 38.8393 23.7051 38.8875 18.8389Z" fill="black"/>
<path d="M23.2235 19.1399C19.8167 15.6647 16.1321 13.753 14.9936 14.8698C13.8551 15.9867 15.6938 19.7092 19.1006 23.1842C22.5073 26.6594 26.1921 28.5712 27.3305 27.4543C28.4691 26.3375 26.6303 22.615 23.2235 19.1399Z" fill="black"/>
<path d="M29.8439 36.1886C29.6494 36.0667 29.6521 35.7648 29.8532 35.6542C32.2228 34.3509 34.424 32.1769 35.7421 29.8377C35.8534 29.6401 36.1465 29.6401 36.2578 29.8377C37.5759 32.1769 39.7771 34.3509 42.1467 35.6542C42.3479 35.7648 42.3506 36.0667 42.1561 36.1886C39.885 37.6123 37.0363 41.2673 36.2249 42.3426C36.1117 42.4925 35.8882 42.4925 35.775 42.3426C34.9636 41.2673 32.1149 37.6123 29.8439 36.1886Z" fill="#1C1FFF"/>
</svg>
